G04 #@! TF.GenerationSoftware,KiCad,Pcbnew,5.1.5+dfsg1-2build2*
G04 #@! TF.CreationDate,2021-05-10T22:18:05+03:00*
G04 #@! TF.ProjectId,HUB75_Clock,48554237-355f-4436-9c6f-636b2e6b6963,rev?*
G04 #@! TF.SameCoordinates,Original*
G04 #@! TF.FileFunction,Soldermask,Bot*
G04 #@! TF.FilePolarity,Negative*
%FSLAX46Y46*%
G04 Gerber Fmt 4.6, Leading zero omitted, Abs format (unit mm)*
G04 Created by KiCad (PCBNEW 5.1.5+dfsg1-2build2) date 2021-05-10 22:18:05*
%MOMM*%
%LPD*%
G04 APERTURE LIST*
%ADD10C,0.100000*%
G04 APERTURE END LIST*
D10*
G36*
X170462865Y-122825855D02*
G01*
X171063608Y-123074691D01*
X171063610Y-123074692D01*
X171604265Y-123435946D01*
X172064054Y-123895735D01*
X172375643Y-124362061D01*
X172425309Y-124436392D01*
X172674145Y-125037135D01*
X172801000Y-125674879D01*
X172801000Y-126325121D01*
X172674145Y-126962865D01*
X172531284Y-127307761D01*
X172425308Y-127563610D01*
X172064054Y-128104265D01*
X171604265Y-128564054D01*
X171063610Y-128925308D01*
X171063609Y-128925309D01*
X171063608Y-128925309D01*
X170462865Y-129174145D01*
X169825121Y-129301000D01*
X169174879Y-129301000D01*
X168537135Y-129174145D01*
X167936392Y-128925309D01*
X167936391Y-128925309D01*
X167936390Y-128925308D01*
X167395735Y-128564054D01*
X166935946Y-128104265D01*
X166574692Y-127563610D01*
X166468716Y-127307761D01*
X166325855Y-126962865D01*
X166199000Y-126325121D01*
X166199000Y-125674879D01*
X166325855Y-125037135D01*
X166574691Y-124436392D01*
X166624357Y-124362061D01*
X166935946Y-123895735D01*
X167395735Y-123435946D01*
X167936390Y-123074692D01*
X167936392Y-123074691D01*
X168537135Y-122825855D01*
X169174879Y-122699000D01*
X169825121Y-122699000D01*
X170462865Y-122825855D01*
G37*
G36*
X128462865Y-122825855D02*
G01*
X129063608Y-123074691D01*
X129063610Y-123074692D01*
X129604265Y-123435946D01*
X130064054Y-123895735D01*
X130375643Y-124362061D01*
X130425309Y-124436392D01*
X130674145Y-125037135D01*
X130801000Y-125674879D01*
X130801000Y-126325121D01*
X130674145Y-126962865D01*
X130531284Y-127307761D01*
X130425308Y-127563610D01*
X130064054Y-128104265D01*
X129604265Y-128564054D01*
X129063610Y-128925308D01*
X129063609Y-128925309D01*
X129063608Y-128925309D01*
X128462865Y-129174145D01*
X127825121Y-129301000D01*
X127174879Y-129301000D01*
X126537135Y-129174145D01*
X125936392Y-128925309D01*
X125936391Y-128925309D01*
X125936390Y-128925308D01*
X125395735Y-128564054D01*
X124935946Y-128104265D01*
X124574692Y-127563610D01*
X124468716Y-127307761D01*
X124325855Y-126962865D01*
X124199000Y-126325121D01*
X124199000Y-125674879D01*
X124325855Y-125037135D01*
X124574691Y-124436392D01*
X124624357Y-124362061D01*
X124935946Y-123895735D01*
X125395735Y-123435946D01*
X125936390Y-123074692D01*
X125936392Y-123074691D01*
X126537135Y-122825855D01*
X127174879Y-122699000D01*
X127825121Y-122699000D01*
X128462865Y-122825855D01*
G37*
G36*
X157667395Y-125040546D02*
G01*
X157840466Y-125112234D01*
X157840467Y-125112235D01*
X157996227Y-125216310D01*
X158128690Y-125348773D01*
X158128691Y-125348775D01*
X158232766Y-125504534D01*
X158304454Y-125677605D01*
X158341000Y-125861333D01*
X158341000Y-126048667D01*
X158304454Y-126232395D01*
X158232766Y-126405466D01*
X158232765Y-126405467D01*
X158128690Y-126561227D01*
X157996227Y-126693690D01*
X157917818Y-126746081D01*
X157840466Y-126797766D01*
X157667395Y-126869454D01*
X157483667Y-126906000D01*
X157296333Y-126906000D01*
X157112605Y-126869454D01*
X156939534Y-126797766D01*
X156862182Y-126746081D01*
X156783773Y-126693690D01*
X156651310Y-126561227D01*
X156547235Y-126405467D01*
X156547234Y-126405466D01*
X156475546Y-126232395D01*
X156439000Y-126048667D01*
X156439000Y-125861333D01*
X156475546Y-125677605D01*
X156547234Y-125504534D01*
X156651309Y-125348775D01*
X156651310Y-125348773D01*
X156783773Y-125216310D01*
X156939533Y-125112235D01*
X156939534Y-125112234D01*
X157112605Y-125040546D01*
X157296333Y-125004000D01*
X157483667Y-125004000D01*
X157667395Y-125040546D01*
G37*
G36*
X150047395Y-125040546D02*
G01*
X150220466Y-125112234D01*
X150220467Y-125112235D01*
X150376227Y-125216310D01*
X150508690Y-125348773D01*
X150508691Y-125348775D01*
X150612766Y-125504534D01*
X150684454Y-125677605D01*
X150721000Y-125861333D01*
X150721000Y-126048667D01*
X150684454Y-126232395D01*
X150612766Y-126405466D01*
X150612765Y-126405467D01*
X150508690Y-126561227D01*
X150376227Y-126693690D01*
X150297818Y-126746081D01*
X150220466Y-126797766D01*
X150047395Y-126869454D01*
X149863667Y-126906000D01*
X149676333Y-126906000D01*
X149492605Y-126869454D01*
X149319534Y-126797766D01*
X149242182Y-126746081D01*
X149163773Y-126693690D01*
X149031310Y-126561227D01*
X148927235Y-126405467D01*
X148927234Y-126405466D01*
X148855546Y-126232395D01*
X148819000Y-126048667D01*
X148819000Y-125861333D01*
X148855546Y-125677605D01*
X148927234Y-125504534D01*
X149031309Y-125348775D01*
X149031310Y-125348773D01*
X149163773Y-125216310D01*
X149319533Y-125112235D01*
X149319534Y-125112234D01*
X149492605Y-125040546D01*
X149676333Y-125004000D01*
X149863667Y-125004000D01*
X150047395Y-125040546D01*
G37*
G36*
X139887395Y-125040546D02*
G01*
X140060466Y-125112234D01*
X140060467Y-125112235D01*
X140216227Y-125216310D01*
X140348690Y-125348773D01*
X140348691Y-125348775D01*
X140452766Y-125504534D01*
X140524454Y-125677605D01*
X140561000Y-125861333D01*
X140561000Y-126048667D01*
X140524454Y-126232395D01*
X140452766Y-126405466D01*
X140452765Y-126405467D01*
X140348690Y-126561227D01*
X140216227Y-126693690D01*
X140137818Y-126746081D01*
X140060466Y-126797766D01*
X139887395Y-126869454D01*
X139703667Y-126906000D01*
X139516333Y-126906000D01*
X139332605Y-126869454D01*
X139159534Y-126797766D01*
X139082182Y-126746081D01*
X139003773Y-126693690D01*
X138871310Y-126561227D01*
X138767235Y-126405467D01*
X138767234Y-126405466D01*
X138695546Y-126232395D01*
X138659000Y-126048667D01*
X138659000Y-125861333D01*
X138695546Y-125677605D01*
X138767234Y-125504534D01*
X138871309Y-125348775D01*
X138871310Y-125348773D01*
X139003773Y-125216310D01*
X139159533Y-125112235D01*
X139159534Y-125112234D01*
X139332605Y-125040546D01*
X139516333Y-125004000D01*
X139703667Y-125004000D01*
X139887395Y-125040546D01*
G37*
G36*
X142427395Y-125040546D02*
G01*
X142600466Y-125112234D01*
X142600467Y-125112235D01*
X142756227Y-125216310D01*
X142888690Y-125348773D01*
X142888691Y-125348775D01*
X142992766Y-125504534D01*
X143064454Y-125677605D01*
X143101000Y-125861333D01*
X143101000Y-126048667D01*
X143064454Y-126232395D01*
X142992766Y-126405466D01*
X142992765Y-126405467D01*
X142888690Y-126561227D01*
X142756227Y-126693690D01*
X142677818Y-126746081D01*
X142600466Y-126797766D01*
X142427395Y-126869454D01*
X142243667Y-126906000D01*
X142056333Y-126906000D01*
X141872605Y-126869454D01*
X141699534Y-126797766D01*
X141622182Y-126746081D01*
X141543773Y-126693690D01*
X141411310Y-126561227D01*
X141307235Y-126405467D01*
X141307234Y-126405466D01*
X141235546Y-126232395D01*
X141199000Y-126048667D01*
X141199000Y-125861333D01*
X141235546Y-125677605D01*
X141307234Y-125504534D01*
X141411309Y-125348775D01*
X141411310Y-125348773D01*
X141543773Y-125216310D01*
X141699533Y-125112235D01*
X141699534Y-125112234D01*
X141872605Y-125040546D01*
X142056333Y-125004000D01*
X142243667Y-125004000D01*
X142427395Y-125040546D01*
G37*
G36*
X144967395Y-125040546D02*
G01*
X145140466Y-125112234D01*
X145140467Y-125112235D01*
X145296227Y-125216310D01*
X145428690Y-125348773D01*
X145428691Y-125348775D01*
X145532766Y-125504534D01*
X145604454Y-125677605D01*
X145641000Y-125861333D01*
X145641000Y-126048667D01*
X145604454Y-126232395D01*
X145532766Y-126405466D01*
X145532765Y-126405467D01*
X145428690Y-126561227D01*
X145296227Y-126693690D01*
X145217818Y-126746081D01*
X145140466Y-126797766D01*
X144967395Y-126869454D01*
X144783667Y-126906000D01*
X144596333Y-126906000D01*
X144412605Y-126869454D01*
X144239534Y-126797766D01*
X144162182Y-126746081D01*
X144083773Y-126693690D01*
X143951310Y-126561227D01*
X143847235Y-126405467D01*
X143847234Y-126405466D01*
X143775546Y-126232395D01*
X143739000Y-126048667D01*
X143739000Y-125861333D01*
X143775546Y-125677605D01*
X143847234Y-125504534D01*
X143951309Y-125348775D01*
X143951310Y-125348773D01*
X144083773Y-125216310D01*
X144239533Y-125112235D01*
X144239534Y-125112234D01*
X144412605Y-125040546D01*
X144596333Y-125004000D01*
X144783667Y-125004000D01*
X144967395Y-125040546D01*
G37*
G36*
X147507395Y-125040546D02*
G01*
X147680466Y-125112234D01*
X147680467Y-125112235D01*
X147836227Y-125216310D01*
X147968690Y-125348773D01*
X147968691Y-125348775D01*
X148072766Y-125504534D01*
X148144454Y-125677605D01*
X148181000Y-125861333D01*
X148181000Y-126048667D01*
X148144454Y-126232395D01*
X148072766Y-126405466D01*
X148072765Y-126405467D01*
X147968690Y-126561227D01*
X147836227Y-126693690D01*
X147757818Y-126746081D01*
X147680466Y-126797766D01*
X147507395Y-126869454D01*
X147323667Y-126906000D01*
X147136333Y-126906000D01*
X146952605Y-126869454D01*
X146779534Y-126797766D01*
X146702182Y-126746081D01*
X146623773Y-126693690D01*
X146491310Y-126561227D01*
X146387235Y-126405467D01*
X146387234Y-126405466D01*
X146315546Y-126232395D01*
X146279000Y-126048667D01*
X146279000Y-125861333D01*
X146315546Y-125677605D01*
X146387234Y-125504534D01*
X146491309Y-125348775D01*
X146491310Y-125348773D01*
X146623773Y-125216310D01*
X146779533Y-125112235D01*
X146779534Y-125112234D01*
X146952605Y-125040546D01*
X147136333Y-125004000D01*
X147323667Y-125004000D01*
X147507395Y-125040546D01*
G37*
G36*
X152587395Y-125040546D02*
G01*
X152760466Y-125112234D01*
X152760467Y-125112235D01*
X152916227Y-125216310D01*
X153048690Y-125348773D01*
X153048691Y-125348775D01*
X153152766Y-125504534D01*
X153224454Y-125677605D01*
X153261000Y-125861333D01*
X153261000Y-126048667D01*
X153224454Y-126232395D01*
X153152766Y-126405466D01*
X153152765Y-126405467D01*
X153048690Y-126561227D01*
X152916227Y-126693690D01*
X152837818Y-126746081D01*
X152760466Y-126797766D01*
X152587395Y-126869454D01*
X152403667Y-126906000D01*
X152216333Y-126906000D01*
X152032605Y-126869454D01*
X151859534Y-126797766D01*
X151782182Y-126746081D01*
X151703773Y-126693690D01*
X151571310Y-126561227D01*
X151467235Y-126405467D01*
X151467234Y-126405466D01*
X151395546Y-126232395D01*
X151359000Y-126048667D01*
X151359000Y-125861333D01*
X151395546Y-125677605D01*
X151467234Y-125504534D01*
X151571309Y-125348775D01*
X151571310Y-125348773D01*
X151703773Y-125216310D01*
X151859533Y-125112235D01*
X151859534Y-125112234D01*
X152032605Y-125040546D01*
X152216333Y-125004000D01*
X152403667Y-125004000D01*
X152587395Y-125040546D01*
G37*
G36*
X155127395Y-125040546D02*
G01*
X155300466Y-125112234D01*
X155300467Y-125112235D01*
X155456227Y-125216310D01*
X155588690Y-125348773D01*
X155588691Y-125348775D01*
X155692766Y-125504534D01*
X155764454Y-125677605D01*
X155801000Y-125861333D01*
X155801000Y-126048667D01*
X155764454Y-126232395D01*
X155692766Y-126405466D01*
X155692765Y-126405467D01*
X155588690Y-126561227D01*
X155456227Y-126693690D01*
X155377818Y-126746081D01*
X155300466Y-126797766D01*
X155127395Y-126869454D01*
X154943667Y-126906000D01*
X154756333Y-126906000D01*
X154572605Y-126869454D01*
X154399534Y-126797766D01*
X154322182Y-126746081D01*
X154243773Y-126693690D01*
X154111310Y-126561227D01*
X154007235Y-126405467D01*
X154007234Y-126405466D01*
X153935546Y-126232395D01*
X153899000Y-126048667D01*
X153899000Y-125861333D01*
X153935546Y-125677605D01*
X154007234Y-125504534D01*
X154111309Y-125348775D01*
X154111310Y-125348773D01*
X154243773Y-125216310D01*
X154399533Y-125112235D01*
X154399534Y-125112234D01*
X154572605Y-125040546D01*
X154756333Y-125004000D01*
X154943667Y-125004000D01*
X155127395Y-125040546D01*
G37*
G36*
X140420723Y-122467939D02*
G01*
X140453280Y-122477815D01*
X140483276Y-122493848D01*
X140509572Y-122515428D01*
X140531152Y-122541724D01*
X140547185Y-122571720D01*
X140557061Y-122604277D01*
X140561000Y-122644269D01*
X140561000Y-124185731D01*
X140557061Y-124225723D01*
X140547185Y-124258280D01*
X140531152Y-124288276D01*
X140509572Y-124314572D01*
X140483276Y-124336152D01*
X140453280Y-124352185D01*
X140420723Y-124362061D01*
X140380731Y-124366000D01*
X138839269Y-124366000D01*
X138799277Y-124362061D01*
X138766720Y-124352185D01*
X138736724Y-124336152D01*
X138710428Y-124314572D01*
X138688848Y-124288276D01*
X138672815Y-124258280D01*
X138662939Y-124225723D01*
X138659000Y-124185731D01*
X138659000Y-122644269D01*
X138662939Y-122604277D01*
X138672815Y-122571720D01*
X138688848Y-122541724D01*
X138710428Y-122515428D01*
X138736724Y-122493848D01*
X138766720Y-122477815D01*
X138799277Y-122467939D01*
X138839269Y-122464000D01*
X140380731Y-122464000D01*
X140420723Y-122467939D01*
G37*
G36*
X142427395Y-122500546D02*
G01*
X142600466Y-122572234D01*
X142677818Y-122623919D01*
X142756227Y-122676310D01*
X142888690Y-122808773D01*
X142888691Y-122808775D01*
X142992766Y-122964534D01*
X143064454Y-123137605D01*
X143101000Y-123321333D01*
X143101000Y-123508667D01*
X143064454Y-123692395D01*
X142992766Y-123865466D01*
X142992765Y-123865467D01*
X142888690Y-124021227D01*
X142756227Y-124153690D01*
X142708274Y-124185731D01*
X142600466Y-124257766D01*
X142427395Y-124329454D01*
X142243667Y-124366000D01*
X142056333Y-124366000D01*
X141872605Y-124329454D01*
X141699534Y-124257766D01*
X141591726Y-124185731D01*
X141543773Y-124153690D01*
X141411310Y-124021227D01*
X141307235Y-123865467D01*
X141307234Y-123865466D01*
X141235546Y-123692395D01*
X141199000Y-123508667D01*
X141199000Y-123321333D01*
X141235546Y-123137605D01*
X141307234Y-122964534D01*
X141411309Y-122808775D01*
X141411310Y-122808773D01*
X141543773Y-122676310D01*
X141622182Y-122623919D01*
X141699534Y-122572234D01*
X141872605Y-122500546D01*
X142056333Y-122464000D01*
X142243667Y-122464000D01*
X142427395Y-122500546D01*
G37*
G36*
X144967395Y-122500546D02*
G01*
X145140466Y-122572234D01*
X145217818Y-122623919D01*
X145296227Y-122676310D01*
X145428690Y-122808773D01*
X145428691Y-122808775D01*
X145532766Y-122964534D01*
X145604454Y-123137605D01*
X145641000Y-123321333D01*
X145641000Y-123508667D01*
X145604454Y-123692395D01*
X145532766Y-123865466D01*
X145532765Y-123865467D01*
X145428690Y-124021227D01*
X145296227Y-124153690D01*
X145248274Y-124185731D01*
X145140466Y-124257766D01*
X144967395Y-124329454D01*
X144783667Y-124366000D01*
X144596333Y-124366000D01*
X144412605Y-124329454D01*
X144239534Y-124257766D01*
X144131726Y-124185731D01*
X144083773Y-124153690D01*
X143951310Y-124021227D01*
X143847235Y-123865467D01*
X143847234Y-123865466D01*
X143775546Y-123692395D01*
X143739000Y-123508667D01*
X143739000Y-123321333D01*
X143775546Y-123137605D01*
X143847234Y-122964534D01*
X143951309Y-122808775D01*
X143951310Y-122808773D01*
X144083773Y-122676310D01*
X144162182Y-122623919D01*
X144239534Y-122572234D01*
X144412605Y-122500546D01*
X144596333Y-122464000D01*
X144783667Y-122464000D01*
X144967395Y-122500546D01*
G37*
G36*
X147507395Y-122500546D02*
G01*
X147680466Y-122572234D01*
X147757818Y-122623919D01*
X147836227Y-122676310D01*
X147968690Y-122808773D01*
X147968691Y-122808775D01*
X148072766Y-122964534D01*
X148144454Y-123137605D01*
X148181000Y-123321333D01*
X148181000Y-123508667D01*
X148144454Y-123692395D01*
X148072766Y-123865466D01*
X148072765Y-123865467D01*
X147968690Y-124021227D01*
X147836227Y-124153690D01*
X147788274Y-124185731D01*
X147680466Y-124257766D01*
X147507395Y-124329454D01*
X147323667Y-124366000D01*
X147136333Y-124366000D01*
X146952605Y-124329454D01*
X146779534Y-124257766D01*
X146671726Y-124185731D01*
X146623773Y-124153690D01*
X146491310Y-124021227D01*
X146387235Y-123865467D01*
X146387234Y-123865466D01*
X146315546Y-123692395D01*
X146279000Y-123508667D01*
X146279000Y-123321333D01*
X146315546Y-123137605D01*
X146387234Y-122964534D01*
X146491309Y-122808775D01*
X146491310Y-122808773D01*
X146623773Y-122676310D01*
X146702182Y-122623919D01*
X146779534Y-122572234D01*
X146952605Y-122500546D01*
X147136333Y-122464000D01*
X147323667Y-122464000D01*
X147507395Y-122500546D01*
G37*
G36*
X150047395Y-122500546D02*
G01*
X150220466Y-122572234D01*
X150297818Y-122623919D01*
X150376227Y-122676310D01*
X150508690Y-122808773D01*
X150508691Y-122808775D01*
X150612766Y-122964534D01*
X150684454Y-123137605D01*
X150721000Y-123321333D01*
X150721000Y-123508667D01*
X150684454Y-123692395D01*
X150612766Y-123865466D01*
X150612765Y-123865467D01*
X150508690Y-124021227D01*
X150376227Y-124153690D01*
X150328274Y-124185731D01*
X150220466Y-124257766D01*
X150047395Y-124329454D01*
X149863667Y-124366000D01*
X149676333Y-124366000D01*
X149492605Y-124329454D01*
X149319534Y-124257766D01*
X149211726Y-124185731D01*
X149163773Y-124153690D01*
X149031310Y-124021227D01*
X148927235Y-123865467D01*
X148927234Y-123865466D01*
X148855546Y-123692395D01*
X148819000Y-123508667D01*
X148819000Y-123321333D01*
X148855546Y-123137605D01*
X148927234Y-122964534D01*
X149031309Y-122808775D01*
X149031310Y-122808773D01*
X149163773Y-122676310D01*
X149242182Y-122623919D01*
X149319534Y-122572234D01*
X149492605Y-122500546D01*
X149676333Y-122464000D01*
X149863667Y-122464000D01*
X150047395Y-122500546D01*
G37*
G36*
X152587395Y-122500546D02*
G01*
X152760466Y-122572234D01*
X152837818Y-122623919D01*
X152916227Y-122676310D01*
X153048690Y-122808773D01*
X153048691Y-122808775D01*
X153152766Y-122964534D01*
X153224454Y-123137605D01*
X153261000Y-123321333D01*
X153261000Y-123508667D01*
X153224454Y-123692395D01*
X153152766Y-123865466D01*
X153152765Y-123865467D01*
X153048690Y-124021227D01*
X152916227Y-124153690D01*
X152868274Y-124185731D01*
X152760466Y-124257766D01*
X152587395Y-124329454D01*
X152403667Y-124366000D01*
X152216333Y-124366000D01*
X152032605Y-124329454D01*
X151859534Y-124257766D01*
X151751726Y-124185731D01*
X151703773Y-124153690D01*
X151571310Y-124021227D01*
X151467235Y-123865467D01*
X151467234Y-123865466D01*
X151395546Y-123692395D01*
X151359000Y-123508667D01*
X151359000Y-123321333D01*
X151395546Y-123137605D01*
X151467234Y-122964534D01*
X151571309Y-122808775D01*
X151571310Y-122808773D01*
X151703773Y-122676310D01*
X151782182Y-122623919D01*
X151859534Y-122572234D01*
X152032605Y-122500546D01*
X152216333Y-122464000D01*
X152403667Y-122464000D01*
X152587395Y-122500546D01*
G37*
G36*
X155127395Y-122500546D02*
G01*
X155300466Y-122572234D01*
X155377818Y-122623919D01*
X155456227Y-122676310D01*
X155588690Y-122808773D01*
X155588691Y-122808775D01*
X155692766Y-122964534D01*
X155764454Y-123137605D01*
X155801000Y-123321333D01*
X155801000Y-123508667D01*
X155764454Y-123692395D01*
X155692766Y-123865466D01*
X155692765Y-123865467D01*
X155588690Y-124021227D01*
X155456227Y-124153690D01*
X155408274Y-124185731D01*
X155300466Y-124257766D01*
X155127395Y-124329454D01*
X154943667Y-124366000D01*
X154756333Y-124366000D01*
X154572605Y-124329454D01*
X154399534Y-124257766D01*
X154291726Y-124185731D01*
X154243773Y-124153690D01*
X154111310Y-124021227D01*
X154007235Y-123865467D01*
X154007234Y-123865466D01*
X153935546Y-123692395D01*
X153899000Y-123508667D01*
X153899000Y-123321333D01*
X153935546Y-123137605D01*
X154007234Y-122964534D01*
X154111309Y-122808775D01*
X154111310Y-122808773D01*
X154243773Y-122676310D01*
X154322182Y-122623919D01*
X154399534Y-122572234D01*
X154572605Y-122500546D01*
X154756333Y-122464000D01*
X154943667Y-122464000D01*
X155127395Y-122500546D01*
G37*
G36*
X157667395Y-122500546D02*
G01*
X157840466Y-122572234D01*
X157917818Y-122623919D01*
X157996227Y-122676310D01*
X158128690Y-122808773D01*
X158128691Y-122808775D01*
X158232766Y-122964534D01*
X158304454Y-123137605D01*
X158341000Y-123321333D01*
X158341000Y-123508667D01*
X158304454Y-123692395D01*
X158232766Y-123865466D01*
X158232765Y-123865467D01*
X158128690Y-124021227D01*
X157996227Y-124153690D01*
X157948274Y-124185731D01*
X157840466Y-124257766D01*
X157667395Y-124329454D01*
X157483667Y-124366000D01*
X157296333Y-124366000D01*
X157112605Y-124329454D01*
X156939534Y-124257766D01*
X156831726Y-124185731D01*
X156783773Y-124153690D01*
X156651310Y-124021227D01*
X156547235Y-123865467D01*
X156547234Y-123865466D01*
X156475546Y-123692395D01*
X156439000Y-123508667D01*
X156439000Y-123321333D01*
X156475546Y-123137605D01*
X156547234Y-122964534D01*
X156651309Y-122808775D01*
X156651310Y-122808773D01*
X156783773Y-122676310D01*
X156862182Y-122623919D01*
X156939534Y-122572234D01*
X157112605Y-122500546D01*
X157296333Y-122464000D01*
X157483667Y-122464000D01*
X157667395Y-122500546D01*
G37*
G36*
X169761564Y-119229389D02*
G01*
X169952833Y-119308615D01*
X169952835Y-119308616D01*
X170124973Y-119423635D01*
X170271365Y-119570027D01*
X170386385Y-119742167D01*
X170465611Y-119933436D01*
X170506000Y-120136484D01*
X170506000Y-120343516D01*
X170465611Y-120546564D01*
X170386385Y-120737833D01*
X170386384Y-120737835D01*
X170271365Y-120909973D01*
X170124973Y-121056365D01*
X169952835Y-121171384D01*
X169952834Y-121171385D01*
X169952833Y-121171385D01*
X169761564Y-121250611D01*
X169558516Y-121291000D01*
X169351484Y-121291000D01*
X169148436Y-121250611D01*
X168957167Y-121171385D01*
X168957166Y-121171385D01*
X168957165Y-121171384D01*
X168785027Y-121056365D01*
X168638635Y-120909973D01*
X168523616Y-120737835D01*
X168523615Y-120737833D01*
X168444389Y-120546564D01*
X168404000Y-120343516D01*
X168404000Y-120136484D01*
X168444389Y-119933436D01*
X168523615Y-119742167D01*
X168638635Y-119570027D01*
X168785027Y-119423635D01*
X168957165Y-119308616D01*
X168957167Y-119308615D01*
X169148436Y-119229389D01*
X169351484Y-119189000D01*
X169558516Y-119189000D01*
X169761564Y-119229389D01*
G37*
G36*
X130242555Y-115742537D02*
G01*
X130271188Y-115751223D01*
X130297572Y-115765326D01*
X130320697Y-115784303D01*
X130339674Y-115807428D01*
X130353777Y-115833812D01*
X130362463Y-115862445D01*
X130366000Y-115898356D01*
X130366000Y-118681644D01*
X130362463Y-118717555D01*
X130353777Y-118746188D01*
X130339674Y-118772572D01*
X130320697Y-118795697D01*
X130297572Y-118814674D01*
X130271188Y-118828777D01*
X130242555Y-118837463D01*
X130206644Y-118841000D01*
X127423356Y-118841000D01*
X127387445Y-118837463D01*
X127358812Y-118828777D01*
X127332428Y-118814674D01*
X127309303Y-118795697D01*
X127290326Y-118772572D01*
X127276223Y-118746188D01*
X127267537Y-118717555D01*
X127264000Y-118681644D01*
X127264000Y-115898356D01*
X127267537Y-115862445D01*
X127276223Y-115833812D01*
X127290326Y-115807428D01*
X127309303Y-115784303D01*
X127332428Y-115765326D01*
X127358812Y-115751223D01*
X127387445Y-115742537D01*
X127423356Y-115739000D01*
X130206644Y-115739000D01*
X130242555Y-115742537D01*
G37*
G36*
X170343346Y-116653473D02*
G01*
X170381119Y-116664931D01*
X170415920Y-116683533D01*
X170446429Y-116708571D01*
X170471467Y-116739080D01*
X170490069Y-116773881D01*
X170501527Y-116811654D01*
X170506000Y-116857068D01*
X170506000Y-118542932D01*
X170501527Y-118588346D01*
X170490069Y-118626119D01*
X170471467Y-118660920D01*
X170446429Y-118691429D01*
X170415920Y-118716467D01*
X170381119Y-118735069D01*
X170343346Y-118746527D01*
X170297932Y-118751000D01*
X168612068Y-118751000D01*
X168566654Y-118746527D01*
X168528881Y-118735069D01*
X168494080Y-118716467D01*
X168463571Y-118691429D01*
X168438533Y-118660920D01*
X168419931Y-118626119D01*
X168408473Y-118588346D01*
X168404000Y-118542932D01*
X168404000Y-116857068D01*
X168408473Y-116811654D01*
X168419931Y-116773881D01*
X168438533Y-116739080D01*
X168463571Y-116708571D01*
X168494080Y-116683533D01*
X168528881Y-116664931D01*
X168566654Y-116653473D01*
X168612068Y-116649000D01*
X170297932Y-116649000D01*
X170343346Y-116653473D01*
G37*
G36*
X155127395Y-113610546D02*
G01*
X155300466Y-113682234D01*
X155300467Y-113682235D01*
X155456227Y-113786310D01*
X155588690Y-113918773D01*
X155588691Y-113918775D01*
X155692766Y-114074534D01*
X155764454Y-114247605D01*
X155801000Y-114431333D01*
X155801000Y-114618667D01*
X155764454Y-114802395D01*
X155692766Y-114975466D01*
X155692765Y-114975467D01*
X155588690Y-115131227D01*
X155456227Y-115263690D01*
X155377818Y-115316081D01*
X155300466Y-115367766D01*
X155127395Y-115439454D01*
X154943667Y-115476000D01*
X154756333Y-115476000D01*
X154572605Y-115439454D01*
X154399534Y-115367766D01*
X154322182Y-115316081D01*
X154243773Y-115263690D01*
X154111310Y-115131227D01*
X154007235Y-114975467D01*
X154007234Y-114975466D01*
X153935546Y-114802395D01*
X153899000Y-114618667D01*
X153899000Y-114431333D01*
X153935546Y-114247605D01*
X154007234Y-114074534D01*
X154111309Y-113918775D01*
X154111310Y-113918773D01*
X154243773Y-113786310D01*
X154399533Y-113682235D01*
X154399534Y-113682234D01*
X154572605Y-113610546D01*
X154756333Y-113574000D01*
X154943667Y-113574000D01*
X155127395Y-113610546D01*
G37*
G36*
X152587395Y-113610546D02*
G01*
X152760466Y-113682234D01*
X152760467Y-113682235D01*
X152916227Y-113786310D01*
X153048690Y-113918773D01*
X153048691Y-113918775D01*
X153152766Y-114074534D01*
X153224454Y-114247605D01*
X153261000Y-114431333D01*
X153261000Y-114618667D01*
X153224454Y-114802395D01*
X153152766Y-114975466D01*
X153152765Y-114975467D01*
X153048690Y-115131227D01*
X152916227Y-115263690D01*
X152837818Y-115316081D01*
X152760466Y-115367766D01*
X152587395Y-115439454D01*
X152403667Y-115476000D01*
X152216333Y-115476000D01*
X152032605Y-115439454D01*
X151859534Y-115367766D01*
X151782182Y-115316081D01*
X151703773Y-115263690D01*
X151571310Y-115131227D01*
X151467235Y-114975467D01*
X151467234Y-114975466D01*
X151395546Y-114802395D01*
X151359000Y-114618667D01*
X151359000Y-114431333D01*
X151395546Y-114247605D01*
X151467234Y-114074534D01*
X151571309Y-113918775D01*
X151571310Y-113918773D01*
X151703773Y-113786310D01*
X151859533Y-113682235D01*
X151859534Y-113682234D01*
X152032605Y-113610546D01*
X152216333Y-113574000D01*
X152403667Y-113574000D01*
X152587395Y-113610546D01*
G37*
G36*
X157667395Y-113610546D02*
G01*
X157840466Y-113682234D01*
X157840467Y-113682235D01*
X157996227Y-113786310D01*
X158128690Y-113918773D01*
X158128691Y-113918775D01*
X158232766Y-114074534D01*
X158304454Y-114247605D01*
X158341000Y-114431333D01*
X158341000Y-114618667D01*
X158304454Y-114802395D01*
X158232766Y-114975466D01*
X158232765Y-114975467D01*
X158128690Y-115131227D01*
X157996227Y-115263690D01*
X157917818Y-115316081D01*
X157840466Y-115367766D01*
X157667395Y-115439454D01*
X157483667Y-115476000D01*
X157296333Y-115476000D01*
X157112605Y-115439454D01*
X156939534Y-115367766D01*
X156862182Y-115316081D01*
X156783773Y-115263690D01*
X156651310Y-115131227D01*
X156547235Y-114975467D01*
X156547234Y-114975466D01*
X156475546Y-114802395D01*
X156439000Y-114618667D01*
X156439000Y-114431333D01*
X156475546Y-114247605D01*
X156547234Y-114074534D01*
X156651309Y-113918775D01*
X156651310Y-113918773D01*
X156783773Y-113786310D01*
X156939533Y-113682235D01*
X156939534Y-113682234D01*
X157112605Y-113610546D01*
X157296333Y-113574000D01*
X157483667Y-113574000D01*
X157667395Y-113610546D01*
G37*
G36*
X150047395Y-113610546D02*
G01*
X150220466Y-113682234D01*
X150220467Y-113682235D01*
X150376227Y-113786310D01*
X150508690Y-113918773D01*
X150508691Y-113918775D01*
X150612766Y-114074534D01*
X150684454Y-114247605D01*
X150721000Y-114431333D01*
X150721000Y-114618667D01*
X150684454Y-114802395D01*
X150612766Y-114975466D01*
X150612765Y-114975467D01*
X150508690Y-115131227D01*
X150376227Y-115263690D01*
X150297818Y-115316081D01*
X150220466Y-115367766D01*
X150047395Y-115439454D01*
X149863667Y-115476000D01*
X149676333Y-115476000D01*
X149492605Y-115439454D01*
X149319534Y-115367766D01*
X149242182Y-115316081D01*
X149163773Y-115263690D01*
X149031310Y-115131227D01*
X148927235Y-114975467D01*
X148927234Y-114975466D01*
X148855546Y-114802395D01*
X148819000Y-114618667D01*
X148819000Y-114431333D01*
X148855546Y-114247605D01*
X148927234Y-114074534D01*
X149031309Y-113918775D01*
X149031310Y-113918773D01*
X149163773Y-113786310D01*
X149319533Y-113682235D01*
X149319534Y-113682234D01*
X149492605Y-113610546D01*
X149676333Y-113574000D01*
X149863667Y-113574000D01*
X150047395Y-113610546D01*
G37*
G36*
X147507395Y-113610546D02*
G01*
X147680466Y-113682234D01*
X147680467Y-113682235D01*
X147836227Y-113786310D01*
X147968690Y-113918773D01*
X147968691Y-113918775D01*
X148072766Y-114074534D01*
X148144454Y-114247605D01*
X148181000Y-114431333D01*
X148181000Y-114618667D01*
X148144454Y-114802395D01*
X148072766Y-114975466D01*
X148072765Y-114975467D01*
X147968690Y-115131227D01*
X147836227Y-115263690D01*
X147757818Y-115316081D01*
X147680466Y-115367766D01*
X147507395Y-115439454D01*
X147323667Y-115476000D01*
X147136333Y-115476000D01*
X146952605Y-115439454D01*
X146779534Y-115367766D01*
X146702182Y-115316081D01*
X146623773Y-115263690D01*
X146491310Y-115131227D01*
X146387235Y-114975467D01*
X146387234Y-114975466D01*
X146315546Y-114802395D01*
X146279000Y-114618667D01*
X146279000Y-114431333D01*
X146315546Y-114247605D01*
X146387234Y-114074534D01*
X146491309Y-113918775D01*
X146491310Y-113918773D01*
X146623773Y-113786310D01*
X146779533Y-113682235D01*
X146779534Y-113682234D01*
X146952605Y-113610546D01*
X147136333Y-113574000D01*
X147323667Y-113574000D01*
X147507395Y-113610546D01*
G37*
G36*
X144967395Y-113610546D02*
G01*
X145140466Y-113682234D01*
X145140467Y-113682235D01*
X145296227Y-113786310D01*
X145428690Y-113918773D01*
X145428691Y-113918775D01*
X145532766Y-114074534D01*
X145604454Y-114247605D01*
X145641000Y-114431333D01*
X145641000Y-114618667D01*
X145604454Y-114802395D01*
X145532766Y-114975466D01*
X145532765Y-114975467D01*
X145428690Y-115131227D01*
X145296227Y-115263690D01*
X145217818Y-115316081D01*
X145140466Y-115367766D01*
X144967395Y-115439454D01*
X144783667Y-115476000D01*
X144596333Y-115476000D01*
X144412605Y-115439454D01*
X144239534Y-115367766D01*
X144162182Y-115316081D01*
X144083773Y-115263690D01*
X143951310Y-115131227D01*
X143847235Y-114975467D01*
X143847234Y-114975466D01*
X143775546Y-114802395D01*
X143739000Y-114618667D01*
X143739000Y-114431333D01*
X143775546Y-114247605D01*
X143847234Y-114074534D01*
X143951309Y-113918775D01*
X143951310Y-113918773D01*
X144083773Y-113786310D01*
X144239533Y-113682235D01*
X144239534Y-113682234D01*
X144412605Y-113610546D01*
X144596333Y-113574000D01*
X144783667Y-113574000D01*
X144967395Y-113610546D01*
G37*
G36*
X142427395Y-113610546D02*
G01*
X142600466Y-113682234D01*
X142600467Y-113682235D01*
X142756227Y-113786310D01*
X142888690Y-113918773D01*
X142888691Y-113918775D01*
X142992766Y-114074534D01*
X143064454Y-114247605D01*
X143101000Y-114431333D01*
X143101000Y-114618667D01*
X143064454Y-114802395D01*
X142992766Y-114975466D01*
X142992765Y-114975467D01*
X142888690Y-115131227D01*
X142756227Y-115263690D01*
X142677818Y-115316081D01*
X142600466Y-115367766D01*
X142427395Y-115439454D01*
X142243667Y-115476000D01*
X142056333Y-115476000D01*
X141872605Y-115439454D01*
X141699534Y-115367766D01*
X141622182Y-115316081D01*
X141543773Y-115263690D01*
X141411310Y-115131227D01*
X141307235Y-114975467D01*
X141307234Y-114975466D01*
X141235546Y-114802395D01*
X141199000Y-114618667D01*
X141199000Y-114431333D01*
X141235546Y-114247605D01*
X141307234Y-114074534D01*
X141411309Y-113918775D01*
X141411310Y-113918773D01*
X141543773Y-113786310D01*
X141699533Y-113682235D01*
X141699534Y-113682234D01*
X141872605Y-113610546D01*
X142056333Y-113574000D01*
X142243667Y-113574000D01*
X142427395Y-113610546D01*
G37*
G36*
X139887395Y-113610546D02*
G01*
X140060466Y-113682234D01*
X140060467Y-113682235D01*
X140216227Y-113786310D01*
X140348690Y-113918773D01*
X140348691Y-113918775D01*
X140452766Y-114074534D01*
X140524454Y-114247605D01*
X140561000Y-114431333D01*
X140561000Y-114618667D01*
X140524454Y-114802395D01*
X140452766Y-114975466D01*
X140452765Y-114975467D01*
X140348690Y-115131227D01*
X140216227Y-115263690D01*
X140137818Y-115316081D01*
X140060466Y-115367766D01*
X139887395Y-115439454D01*
X139703667Y-115476000D01*
X139516333Y-115476000D01*
X139332605Y-115439454D01*
X139159534Y-115367766D01*
X139082182Y-115316081D01*
X139003773Y-115263690D01*
X138871310Y-115131227D01*
X138767235Y-114975467D01*
X138767234Y-114975466D01*
X138695546Y-114802395D01*
X138659000Y-114618667D01*
X138659000Y-114431333D01*
X138695546Y-114247605D01*
X138767234Y-114074534D01*
X138871309Y-113918775D01*
X138871310Y-113918773D01*
X139003773Y-113786310D01*
X139159533Y-113682235D01*
X139159534Y-113682234D01*
X139332605Y-113610546D01*
X139516333Y-113574000D01*
X139703667Y-113574000D01*
X139887395Y-113610546D01*
G37*
G36*
X169761564Y-112879389D02*
G01*
X169898235Y-112936000D01*
X169952835Y-112958616D01*
X170124973Y-113073635D01*
X170271365Y-113220027D01*
X170386385Y-113392167D01*
X170465611Y-113583436D01*
X170506000Y-113786484D01*
X170506000Y-113993516D01*
X170465611Y-114196564D01*
X170386385Y-114387833D01*
X170386384Y-114387835D01*
X170271365Y-114559973D01*
X170124973Y-114706365D01*
X169952835Y-114821384D01*
X169952834Y-114821385D01*
X169952833Y-114821385D01*
X169761564Y-114900611D01*
X169558516Y-114941000D01*
X169351484Y-114941000D01*
X169148436Y-114900611D01*
X168957167Y-114821385D01*
X168957166Y-114821385D01*
X168957165Y-114821384D01*
X168785027Y-114706365D01*
X168638635Y-114559973D01*
X168523616Y-114387835D01*
X168523615Y-114387833D01*
X168444389Y-114196564D01*
X168404000Y-113993516D01*
X168404000Y-113786484D01*
X168444389Y-113583436D01*
X168523615Y-113392167D01*
X168638635Y-113220027D01*
X168785027Y-113073635D01*
X168957165Y-112958616D01*
X169011765Y-112936000D01*
X169148436Y-112879389D01*
X169351484Y-112839000D01*
X169558516Y-112839000D01*
X169761564Y-112879389D01*
G37*
G36*
X129117585Y-111808802D02*
G01*
X129267410Y-111838604D01*
X129549674Y-111955521D01*
X129803705Y-112125259D01*
X130019741Y-112341295D01*
X130189479Y-112595326D01*
X130306396Y-112877590D01*
X130366000Y-113177240D01*
X130366000Y-113482760D01*
X130306396Y-113782410D01*
X130189479Y-114064674D01*
X130019741Y-114318705D01*
X129803705Y-114534741D01*
X129549674Y-114704479D01*
X129267410Y-114821396D01*
X129117585Y-114851198D01*
X128967761Y-114881000D01*
X128662239Y-114881000D01*
X128512415Y-114851198D01*
X128362590Y-114821396D01*
X128080326Y-114704479D01*
X127826295Y-114534741D01*
X127610259Y-114318705D01*
X127440521Y-114064674D01*
X127323604Y-113782410D01*
X127264000Y-113482760D01*
X127264000Y-113177240D01*
X127323604Y-112877590D01*
X127440521Y-112595326D01*
X127610259Y-112341295D01*
X127826295Y-112125259D01*
X128080326Y-111955521D01*
X128362590Y-111838604D01*
X128512415Y-111808802D01*
X128662239Y-111779000D01*
X128967761Y-111779000D01*
X129117585Y-111808802D01*
G37*
G36*
X150047395Y-111070546D02*
G01*
X150220466Y-111142234D01*
X150297818Y-111193919D01*
X150376227Y-111246310D01*
X150508690Y-111378773D01*
X150508691Y-111378775D01*
X150612766Y-111534534D01*
X150684454Y-111707605D01*
X150721000Y-111891333D01*
X150721000Y-112078667D01*
X150684454Y-112262395D01*
X150612766Y-112435466D01*
X150612765Y-112435467D01*
X150508690Y-112591227D01*
X150376227Y-112723690D01*
X150328274Y-112755731D01*
X150220466Y-112827766D01*
X150047395Y-112899454D01*
X149863667Y-112936000D01*
X149676333Y-112936000D01*
X149492605Y-112899454D01*
X149319534Y-112827766D01*
X149211726Y-112755731D01*
X149163773Y-112723690D01*
X149031310Y-112591227D01*
X148927235Y-112435467D01*
X148927234Y-112435466D01*
X148855546Y-112262395D01*
X148819000Y-112078667D01*
X148819000Y-111891333D01*
X148855546Y-111707605D01*
X148927234Y-111534534D01*
X149031309Y-111378775D01*
X149031310Y-111378773D01*
X149163773Y-111246310D01*
X149242182Y-111193919D01*
X149319534Y-111142234D01*
X149492605Y-111070546D01*
X149676333Y-111034000D01*
X149863667Y-111034000D01*
X150047395Y-111070546D01*
G37*
G36*
X152587395Y-111070546D02*
G01*
X152760466Y-111142234D01*
X152837818Y-111193919D01*
X152916227Y-111246310D01*
X153048690Y-111378773D01*
X153048691Y-111378775D01*
X153152766Y-111534534D01*
X153224454Y-111707605D01*
X153261000Y-111891333D01*
X153261000Y-112078667D01*
X153224454Y-112262395D01*
X153152766Y-112435466D01*
X153152765Y-112435467D01*
X153048690Y-112591227D01*
X152916227Y-112723690D01*
X152868274Y-112755731D01*
X152760466Y-112827766D01*
X152587395Y-112899454D01*
X152403667Y-112936000D01*
X152216333Y-112936000D01*
X152032605Y-112899454D01*
X151859534Y-112827766D01*
X151751726Y-112755731D01*
X151703773Y-112723690D01*
X151571310Y-112591227D01*
X151467235Y-112435467D01*
X151467234Y-112435466D01*
X151395546Y-112262395D01*
X151359000Y-112078667D01*
X151359000Y-111891333D01*
X151395546Y-111707605D01*
X151467234Y-111534534D01*
X151571309Y-111378775D01*
X151571310Y-111378773D01*
X151703773Y-111246310D01*
X151782182Y-111193919D01*
X151859534Y-111142234D01*
X152032605Y-111070546D01*
X152216333Y-111034000D01*
X152403667Y-111034000D01*
X152587395Y-111070546D01*
G37*
G36*
X155127395Y-111070546D02*
G01*
X155300466Y-111142234D01*
X155377818Y-111193919D01*
X155456227Y-111246310D01*
X155588690Y-111378773D01*
X155588691Y-111378775D01*
X155692766Y-111534534D01*
X155764454Y-111707605D01*
X155801000Y-111891333D01*
X155801000Y-112078667D01*
X155764454Y-112262395D01*
X155692766Y-112435466D01*
X155692765Y-112435467D01*
X155588690Y-112591227D01*
X155456227Y-112723690D01*
X155408274Y-112755731D01*
X155300466Y-112827766D01*
X155127395Y-112899454D01*
X154943667Y-112936000D01*
X154756333Y-112936000D01*
X154572605Y-112899454D01*
X154399534Y-112827766D01*
X154291726Y-112755731D01*
X154243773Y-112723690D01*
X154111310Y-112591227D01*
X154007235Y-112435467D01*
X154007234Y-112435466D01*
X153935546Y-112262395D01*
X153899000Y-112078667D01*
X153899000Y-111891333D01*
X153935546Y-111707605D01*
X154007234Y-111534534D01*
X154111309Y-111378775D01*
X154111310Y-111378773D01*
X154243773Y-111246310D01*
X154322182Y-111193919D01*
X154399534Y-111142234D01*
X154572605Y-111070546D01*
X154756333Y-111034000D01*
X154943667Y-111034000D01*
X155127395Y-111070546D01*
G37*
G36*
X142427395Y-111070546D02*
G01*
X142600466Y-111142234D01*
X142677818Y-111193919D01*
X142756227Y-111246310D01*
X142888690Y-111378773D01*
X142888691Y-111378775D01*
X142992766Y-111534534D01*
X143064454Y-111707605D01*
X143101000Y-111891333D01*
X143101000Y-112078667D01*
X143064454Y-112262395D01*
X142992766Y-112435466D01*
X142992765Y-112435467D01*
X142888690Y-112591227D01*
X142756227Y-112723690D01*
X142708274Y-112755731D01*
X142600466Y-112827766D01*
X142427395Y-112899454D01*
X142243667Y-112936000D01*
X142056333Y-112936000D01*
X141872605Y-112899454D01*
X141699534Y-112827766D01*
X141591726Y-112755731D01*
X141543773Y-112723690D01*
X141411310Y-112591227D01*
X141307235Y-112435467D01*
X141307234Y-112435466D01*
X141235546Y-112262395D01*
X141199000Y-112078667D01*
X141199000Y-111891333D01*
X141235546Y-111707605D01*
X141307234Y-111534534D01*
X141411309Y-111378775D01*
X141411310Y-111378773D01*
X141543773Y-111246310D01*
X141622182Y-111193919D01*
X141699534Y-111142234D01*
X141872605Y-111070546D01*
X142056333Y-111034000D01*
X142243667Y-111034000D01*
X142427395Y-111070546D01*
G37*
G36*
X140420723Y-111037939D02*
G01*
X140453280Y-111047815D01*
X140483276Y-111063848D01*
X140509572Y-111085428D01*
X140531152Y-111111724D01*
X140547185Y-111141720D01*
X140557061Y-111174277D01*
X140561000Y-111214269D01*
X140561000Y-112755731D01*
X140557061Y-112795723D01*
X140547185Y-112828280D01*
X140531152Y-112858276D01*
X140509572Y-112884572D01*
X140483276Y-112906152D01*
X140453280Y-112922185D01*
X140420723Y-112932061D01*
X140380731Y-112936000D01*
X138839269Y-112936000D01*
X138799277Y-112932061D01*
X138766720Y-112922185D01*
X138736724Y-112906152D01*
X138710428Y-112884572D01*
X138688848Y-112858276D01*
X138672815Y-112828280D01*
X138662939Y-112795723D01*
X138659000Y-112755731D01*
X138659000Y-111214269D01*
X138662939Y-111174277D01*
X138672815Y-111141720D01*
X138688848Y-111111724D01*
X138710428Y-111085428D01*
X138736724Y-111063848D01*
X138766720Y-111047815D01*
X138799277Y-111037939D01*
X138839269Y-111034000D01*
X140380731Y-111034000D01*
X140420723Y-111037939D01*
G37*
G36*
X144967395Y-111070546D02*
G01*
X145140466Y-111142234D01*
X145217818Y-111193919D01*
X145296227Y-111246310D01*
X145428690Y-111378773D01*
X145428691Y-111378775D01*
X145532766Y-111534534D01*
X145604454Y-111707605D01*
X145641000Y-111891333D01*
X145641000Y-112078667D01*
X145604454Y-112262395D01*
X145532766Y-112435466D01*
X145532765Y-112435467D01*
X145428690Y-112591227D01*
X145296227Y-112723690D01*
X145248274Y-112755731D01*
X145140466Y-112827766D01*
X144967395Y-112899454D01*
X144783667Y-112936000D01*
X144596333Y-112936000D01*
X144412605Y-112899454D01*
X144239534Y-112827766D01*
X144131726Y-112755731D01*
X144083773Y-112723690D01*
X143951310Y-112591227D01*
X143847235Y-112435467D01*
X143847234Y-112435466D01*
X143775546Y-112262395D01*
X143739000Y-112078667D01*
X143739000Y-111891333D01*
X143775546Y-111707605D01*
X143847234Y-111534534D01*
X143951309Y-111378775D01*
X143951310Y-111378773D01*
X144083773Y-111246310D01*
X144162182Y-111193919D01*
X144239534Y-111142234D01*
X144412605Y-111070546D01*
X144596333Y-111034000D01*
X144783667Y-111034000D01*
X144967395Y-111070546D01*
G37*
G36*
X157667395Y-111070546D02*
G01*
X157840466Y-111142234D01*
X157917818Y-111193919D01*
X157996227Y-111246310D01*
X158128690Y-111378773D01*
X158128691Y-111378775D01*
X158232766Y-111534534D01*
X158304454Y-111707605D01*
X158341000Y-111891333D01*
X158341000Y-112078667D01*
X158304454Y-112262395D01*
X158232766Y-112435466D01*
X158232765Y-112435467D01*
X158128690Y-112591227D01*
X157996227Y-112723690D01*
X157948274Y-112755731D01*
X157840466Y-112827766D01*
X157667395Y-112899454D01*
X157483667Y-112936000D01*
X157296333Y-112936000D01*
X157112605Y-112899454D01*
X156939534Y-112827766D01*
X156831726Y-112755731D01*
X156783773Y-112723690D01*
X156651310Y-112591227D01*
X156547235Y-112435467D01*
X156547234Y-112435466D01*
X156475546Y-112262395D01*
X156439000Y-112078667D01*
X156439000Y-111891333D01*
X156475546Y-111707605D01*
X156547234Y-111534534D01*
X156651309Y-111378775D01*
X156651310Y-111378773D01*
X156783773Y-111246310D01*
X156862182Y-111193919D01*
X156939534Y-111142234D01*
X157112605Y-111070546D01*
X157296333Y-111034000D01*
X157483667Y-111034000D01*
X157667395Y-111070546D01*
G37*
G36*
X147507395Y-111070546D02*
G01*
X147680466Y-111142234D01*
X147757818Y-111193919D01*
X147836227Y-111246310D01*
X147968690Y-111378773D01*
X147968691Y-111378775D01*
X148072766Y-111534534D01*
X148144454Y-111707605D01*
X148181000Y-111891333D01*
X148181000Y-112078667D01*
X148144454Y-112262395D01*
X148072766Y-112435466D01*
X148072765Y-112435467D01*
X147968690Y-112591227D01*
X147836227Y-112723690D01*
X147788274Y-112755731D01*
X147680466Y-112827766D01*
X147507395Y-112899454D01*
X147323667Y-112936000D01*
X147136333Y-112936000D01*
X146952605Y-112899454D01*
X146779534Y-112827766D01*
X146671726Y-112755731D01*
X146623773Y-112723690D01*
X146491310Y-112591227D01*
X146387235Y-112435467D01*
X146387234Y-112435466D01*
X146315546Y-112262395D01*
X146279000Y-112078667D01*
X146279000Y-111891333D01*
X146315546Y-111707605D01*
X146387234Y-111534534D01*
X146491309Y-111378775D01*
X146491310Y-111378773D01*
X146623773Y-111246310D01*
X146702182Y-111193919D01*
X146779534Y-111142234D01*
X146952605Y-111070546D01*
X147136333Y-111034000D01*
X147323667Y-111034000D01*
X147507395Y-111070546D01*
G37*
G36*
X169761564Y-110339389D02*
G01*
X169952833Y-110418615D01*
X169952835Y-110418616D01*
X170124973Y-110533635D01*
X170271365Y-110680027D01*
X170386385Y-110852167D01*
X170465611Y-111043436D01*
X170506000Y-111246484D01*
X170506000Y-111453516D01*
X170465611Y-111656564D01*
X170444469Y-111707605D01*
X170386384Y-111847835D01*
X170271365Y-112019973D01*
X170124973Y-112166365D01*
X169952835Y-112281384D01*
X169952834Y-112281385D01*
X169952833Y-112281385D01*
X169761564Y-112360611D01*
X169558516Y-112401000D01*
X169351484Y-112401000D01*
X169148436Y-112360611D01*
X168957167Y-112281385D01*
X168957166Y-112281385D01*
X168957165Y-112281384D01*
X168785027Y-112166365D01*
X168638635Y-112019973D01*
X168523616Y-111847835D01*
X168465531Y-111707605D01*
X168444389Y-111656564D01*
X168404000Y-111453516D01*
X168404000Y-111246484D01*
X168444389Y-111043436D01*
X168523615Y-110852167D01*
X168638635Y-110680027D01*
X168785027Y-110533635D01*
X168957165Y-110418616D01*
X168957167Y-110418615D01*
X169148436Y-110339389D01*
X169351484Y-110299000D01*
X169558516Y-110299000D01*
X169761564Y-110339389D01*
G37*
G36*
X129117585Y-107848802D02*
G01*
X129267410Y-107878604D01*
X129549674Y-107995521D01*
X129803705Y-108165259D01*
X130019741Y-108381295D01*
X130189479Y-108635326D01*
X130306396Y-108917590D01*
X130366000Y-109217240D01*
X130366000Y-109522760D01*
X130306396Y-109822410D01*
X130189479Y-110104674D01*
X130019741Y-110358705D01*
X129803705Y-110574741D01*
X129549674Y-110744479D01*
X129267410Y-110861396D01*
X129117585Y-110891198D01*
X128967761Y-110921000D01*
X128662239Y-110921000D01*
X128512415Y-110891198D01*
X128362590Y-110861396D01*
X128080326Y-110744479D01*
X127826295Y-110574741D01*
X127610259Y-110358705D01*
X127440521Y-110104674D01*
X127323604Y-109822410D01*
X127264000Y-109522760D01*
X127264000Y-109217240D01*
X127323604Y-108917590D01*
X127440521Y-108635326D01*
X127610259Y-108381295D01*
X127826295Y-108165259D01*
X128080326Y-107995521D01*
X128362590Y-107878604D01*
X128512415Y-107848802D01*
X128662239Y-107819000D01*
X128967761Y-107819000D01*
X129117585Y-107848802D01*
G37*
G36*
X169761564Y-107799389D02*
G01*
X169952806Y-107878604D01*
X169952835Y-107878616D01*
X170124973Y-107993635D01*
X170271365Y-108140027D01*
X170386385Y-108312167D01*
X170465611Y-108503436D01*
X170506000Y-108706484D01*
X170506000Y-108913516D01*
X170465611Y-109116564D01*
X170386385Y-109307833D01*
X170386384Y-109307835D01*
X170271365Y-109479973D01*
X170124973Y-109626365D01*
X169952835Y-109741384D01*
X169952834Y-109741385D01*
X169952833Y-109741385D01*
X169761564Y-109820611D01*
X169558516Y-109861000D01*
X169351484Y-109861000D01*
X169148436Y-109820611D01*
X168957167Y-109741385D01*
X168957166Y-109741385D01*
X168957165Y-109741384D01*
X168785027Y-109626365D01*
X168638635Y-109479973D01*
X168523616Y-109307835D01*
X168523615Y-109307833D01*
X168444389Y-109116564D01*
X168404000Y-108913516D01*
X168404000Y-108706484D01*
X168444389Y-108503436D01*
X168523615Y-108312167D01*
X168638635Y-108140027D01*
X168785027Y-107993635D01*
X168957165Y-107878616D01*
X168957194Y-107878604D01*
X169148436Y-107799389D01*
X169351484Y-107759000D01*
X169558516Y-107759000D01*
X169761564Y-107799389D01*
G37*
G36*
X170369852Y-105222840D02*
G01*
X170401443Y-105232423D01*
X170430557Y-105247985D01*
X170456074Y-105268926D01*
X170477015Y-105294443D01*
X170492577Y-105323557D01*
X170502160Y-105355148D01*
X170506000Y-105394140D01*
X170506000Y-107145860D01*
X170502160Y-107184852D01*
X170492577Y-107216443D01*
X170477015Y-107245557D01*
X170456074Y-107271074D01*
X170430557Y-107292015D01*
X170401443Y-107307577D01*
X170369852Y-107317160D01*
X170330860Y-107321000D01*
X168579140Y-107321000D01*
X168540148Y-107317160D01*
X168508557Y-107307577D01*
X168479443Y-107292015D01*
X168453926Y-107271074D01*
X168432985Y-107245557D01*
X168417423Y-107216443D01*
X168407840Y-107184852D01*
X168404000Y-107145860D01*
X168404000Y-105394140D01*
X168407840Y-105355148D01*
X168417423Y-105323557D01*
X168432985Y-105294443D01*
X168453926Y-105268926D01*
X168479443Y-105247985D01*
X168508557Y-105232423D01*
X168540148Y-105222840D01*
X168579140Y-105219000D01*
X170330860Y-105219000D01*
X170369852Y-105222840D01*
G37*
G36*
X129117585Y-103888802D02*
G01*
X129267410Y-103918604D01*
X129549674Y-104035521D01*
X129803705Y-104205259D01*
X130019741Y-104421295D01*
X130189479Y-104675326D01*
X130306396Y-104957590D01*
X130306396Y-104957591D01*
X130359158Y-105222840D01*
X130366000Y-105257240D01*
X130366000Y-105562760D01*
X130306396Y-105862410D01*
X130189479Y-106144674D01*
X130019741Y-106398705D01*
X129803705Y-106614741D01*
X129549674Y-106784479D01*
X129267410Y-106901396D01*
X129117585Y-106931198D01*
X128967761Y-106961000D01*
X128662239Y-106961000D01*
X128512415Y-106931198D01*
X128362590Y-106901396D01*
X128080326Y-106784479D01*
X127826295Y-106614741D01*
X127610259Y-106398705D01*
X127440521Y-106144674D01*
X127323604Y-105862410D01*
X127264000Y-105562760D01*
X127264000Y-105257240D01*
X127270843Y-105222840D01*
X127323604Y-104957591D01*
X127323604Y-104957590D01*
X127440521Y-104675326D01*
X127610259Y-104421295D01*
X127826295Y-104205259D01*
X128080326Y-104035521D01*
X128362590Y-103918604D01*
X128512415Y-103888802D01*
X128662239Y-103859000D01*
X128967761Y-103859000D01*
X129117585Y-103888802D01*
G37*
G36*
X128459852Y-98872840D02*
G01*
X128491443Y-98882423D01*
X128520557Y-98897985D01*
X128546074Y-98918926D01*
X128567015Y-98944443D01*
X128582577Y-98973557D01*
X128592160Y-99005148D01*
X128596000Y-99044140D01*
X128596000Y-100795860D01*
X128592160Y-100834852D01*
X128582577Y-100866443D01*
X128567015Y-100895557D01*
X128546074Y-100921074D01*
X128520557Y-100942015D01*
X128491443Y-100957577D01*
X128459852Y-100967160D01*
X128420860Y-100971000D01*
X126669140Y-100971000D01*
X126630148Y-100967160D01*
X126598557Y-100957577D01*
X126569443Y-100942015D01*
X126543926Y-100921074D01*
X126522985Y-100895557D01*
X126507423Y-100866443D01*
X126497840Y-100834852D01*
X126494000Y-100795860D01*
X126494000Y-99044140D01*
X126497840Y-99005148D01*
X126507423Y-98973557D01*
X126522985Y-98944443D01*
X126543926Y-98918926D01*
X126569443Y-98897985D01*
X126598557Y-98882423D01*
X126630148Y-98872840D01*
X126669140Y-98869000D01*
X128420860Y-98869000D01*
X128459852Y-98872840D01*
G37*
G36*
X171002395Y-99005546D02*
G01*
X171175466Y-99077234D01*
X171252818Y-99128919D01*
X171331227Y-99181310D01*
X171463690Y-99313773D01*
X171463691Y-99313775D01*
X171567766Y-99469534D01*
X171639454Y-99642605D01*
X171676000Y-99826333D01*
X171676000Y-100013667D01*
X171639454Y-100197395D01*
X171567766Y-100370466D01*
X171567765Y-100370467D01*
X171463690Y-100526227D01*
X171331227Y-100658690D01*
X171257055Y-100708250D01*
X171175466Y-100762766D01*
X171002395Y-100834454D01*
X170818667Y-100871000D01*
X170631333Y-100871000D01*
X170447605Y-100834454D01*
X170274534Y-100762766D01*
X170192945Y-100708250D01*
X170118773Y-100658690D01*
X169986310Y-100526227D01*
X169882235Y-100370467D01*
X169882234Y-100370466D01*
X169810546Y-100197395D01*
X169774000Y-100013667D01*
X169774000Y-99826333D01*
X169810546Y-99642605D01*
X169882234Y-99469534D01*
X169986309Y-99313775D01*
X169986310Y-99313773D01*
X170118773Y-99181310D01*
X170197182Y-99128919D01*
X170274534Y-99077234D01*
X170447605Y-99005546D01*
X170631333Y-98969000D01*
X170818667Y-98969000D01*
X171002395Y-99005546D01*
G37*
G36*
X168462395Y-99005546D02*
G01*
X168635466Y-99077234D01*
X168712818Y-99128919D01*
X168791227Y-99181310D01*
X168923690Y-99313773D01*
X168923691Y-99313775D01*
X169027766Y-99469534D01*
X169099454Y-99642605D01*
X169136000Y-99826333D01*
X169136000Y-100013667D01*
X169099454Y-100197395D01*
X169027766Y-100370466D01*
X169027765Y-100370467D01*
X168923690Y-100526227D01*
X168791227Y-100658690D01*
X168717055Y-100708250D01*
X168635466Y-100762766D01*
X168462395Y-100834454D01*
X168278667Y-100871000D01*
X168091333Y-100871000D01*
X167907605Y-100834454D01*
X167734534Y-100762766D01*
X167652945Y-100708250D01*
X167578773Y-100658690D01*
X167446310Y-100526227D01*
X167342235Y-100370467D01*
X167342234Y-100370466D01*
X167270546Y-100197395D01*
X167234000Y-100013667D01*
X167234000Y-99826333D01*
X167270546Y-99642605D01*
X167342234Y-99469534D01*
X167446309Y-99313775D01*
X167446310Y-99313773D01*
X167578773Y-99181310D01*
X167657182Y-99128919D01*
X167734534Y-99077234D01*
X167907605Y-99005546D01*
X168091333Y-98969000D01*
X168278667Y-98969000D01*
X168462395Y-99005546D01*
G37*
G36*
X127851564Y-96369389D02*
G01*
X128042833Y-96448615D01*
X128042835Y-96448616D01*
X128214973Y-96563635D01*
X128361365Y-96710027D01*
X128472791Y-96876787D01*
X128476385Y-96882167D01*
X128555611Y-97073436D01*
X128596000Y-97276484D01*
X128596000Y-97483516D01*
X128555611Y-97686564D01*
X128476385Y-97877833D01*
X128476384Y-97877835D01*
X128361365Y-98049973D01*
X128214973Y-98196365D01*
X128042835Y-98311384D01*
X128042834Y-98311385D01*
X128042833Y-98311385D01*
X127851564Y-98390611D01*
X127648516Y-98431000D01*
X127441484Y-98431000D01*
X127238436Y-98390611D01*
X127047167Y-98311385D01*
X127047166Y-98311385D01*
X127047165Y-98311384D01*
X126875027Y-98196365D01*
X126728635Y-98049973D01*
X126613616Y-97877835D01*
X126613615Y-97877833D01*
X126534389Y-97686564D01*
X126494000Y-97483516D01*
X126494000Y-97276484D01*
X126534389Y-97073436D01*
X126613615Y-96882167D01*
X126617210Y-96876787D01*
X126728635Y-96710027D01*
X126875027Y-96563635D01*
X127047165Y-96448616D01*
X127047167Y-96448615D01*
X127238436Y-96369389D01*
X127441484Y-96329000D01*
X127648516Y-96329000D01*
X127851564Y-96369389D01*
G37*
G36*
X171002395Y-96465546D02*
G01*
X171175466Y-96537234D01*
X171175467Y-96537235D01*
X171331227Y-96641310D01*
X171463690Y-96773773D01*
X171463691Y-96773775D01*
X171567766Y-96929534D01*
X171639454Y-97102605D01*
X171676000Y-97286333D01*
X171676000Y-97473667D01*
X171639454Y-97657395D01*
X171567766Y-97830466D01*
X171567765Y-97830467D01*
X171463690Y-97986227D01*
X171331227Y-98118690D01*
X171252818Y-98171081D01*
X171175466Y-98222766D01*
X171002395Y-98294454D01*
X170818667Y-98331000D01*
X170631333Y-98331000D01*
X170447605Y-98294454D01*
X170274534Y-98222766D01*
X170197182Y-98171081D01*
X170118773Y-98118690D01*
X169986310Y-97986227D01*
X169882235Y-97830467D01*
X169882234Y-97830466D01*
X169810546Y-97657395D01*
X169774000Y-97473667D01*
X169774000Y-97286333D01*
X169810546Y-97102605D01*
X169882234Y-96929534D01*
X169986309Y-96773775D01*
X169986310Y-96773773D01*
X170118773Y-96641310D01*
X170274533Y-96537235D01*
X170274534Y-96537234D01*
X170447605Y-96465546D01*
X170631333Y-96429000D01*
X170818667Y-96429000D01*
X171002395Y-96465546D01*
G37*
G36*
X168462395Y-96465546D02*
G01*
X168635466Y-96537234D01*
X168635467Y-96537235D01*
X168791227Y-96641310D01*
X168923690Y-96773773D01*
X168923691Y-96773775D01*
X169027766Y-96929534D01*
X169099454Y-97102605D01*
X169136000Y-97286333D01*
X169136000Y-97473667D01*
X169099454Y-97657395D01*
X169027766Y-97830466D01*
X169027765Y-97830467D01*
X168923690Y-97986227D01*
X168791227Y-98118690D01*
X168712818Y-98171081D01*
X168635466Y-98222766D01*
X168462395Y-98294454D01*
X168278667Y-98331000D01*
X168091333Y-98331000D01*
X167907605Y-98294454D01*
X167734534Y-98222766D01*
X167657182Y-98171081D01*
X167578773Y-98118690D01*
X167446310Y-97986227D01*
X167342235Y-97830467D01*
X167342234Y-97830466D01*
X167270546Y-97657395D01*
X167234000Y-97473667D01*
X167234000Y-97286333D01*
X167270546Y-97102605D01*
X167342234Y-96929534D01*
X167446309Y-96773775D01*
X167446310Y-96773773D01*
X167578773Y-96641310D01*
X167734533Y-96537235D01*
X167734534Y-96537234D01*
X167907605Y-96465546D01*
X168091333Y-96429000D01*
X168278667Y-96429000D01*
X168462395Y-96465546D01*
G37*
G36*
X157464903Y-95797075D02*
G01*
X157691659Y-95891000D01*
X157692571Y-95891378D01*
X157897466Y-96028285D01*
X158071715Y-96202534D01*
X158071716Y-96202536D01*
X158208623Y-96407431D01*
X158302925Y-96635097D01*
X158317830Y-96710027D01*
X158351000Y-96876787D01*
X158351000Y-97123213D01*
X158302925Y-97364903D01*
X158208622Y-97592571D01*
X158071715Y-97797466D01*
X157897466Y-97971715D01*
X157692571Y-98108622D01*
X157692570Y-98108623D01*
X157692569Y-98108623D01*
X157464903Y-98202925D01*
X157223214Y-98251000D01*
X156976786Y-98251000D01*
X156735097Y-98202925D01*
X156507431Y-98108623D01*
X156507430Y-98108623D01*
X156507429Y-98108622D01*
X156302534Y-97971715D01*
X156128285Y-97797466D01*
X155991378Y-97592571D01*
X155897075Y-97364903D01*
X155849000Y-97123213D01*
X155849000Y-96876787D01*
X155882171Y-96710027D01*
X155897075Y-96635097D01*
X155991377Y-96407431D01*
X156128284Y-96202536D01*
X156128285Y-96202534D01*
X156302534Y-96028285D01*
X156507429Y-95891378D01*
X156508342Y-95891000D01*
X156735097Y-95797075D01*
X156976786Y-95749000D01*
X157223214Y-95749000D01*
X157464903Y-95797075D01*
G37*
G36*
X136964903Y-95797075D02*
G01*
X137191659Y-95891000D01*
X137192571Y-95891378D01*
X137397466Y-96028285D01*
X137571715Y-96202534D01*
X137571716Y-96202536D01*
X137708623Y-96407431D01*
X137802925Y-96635097D01*
X137817830Y-96710027D01*
X137851000Y-96876787D01*
X137851000Y-97123213D01*
X137802925Y-97364903D01*
X137708622Y-97592571D01*
X137571715Y-97797466D01*
X137397466Y-97971715D01*
X137192571Y-98108622D01*
X137192570Y-98108623D01*
X137192569Y-98108623D01*
X136964903Y-98202925D01*
X136723214Y-98251000D01*
X136476786Y-98251000D01*
X136235097Y-98202925D01*
X136007431Y-98108623D01*
X136007430Y-98108623D01*
X136007429Y-98108622D01*
X135802534Y-97971715D01*
X135628285Y-97797466D01*
X135491378Y-97592571D01*
X135397075Y-97364903D01*
X135349000Y-97123213D01*
X135349000Y-96876787D01*
X135382171Y-96710027D01*
X135397075Y-96635097D01*
X135491377Y-96407431D01*
X135628284Y-96202536D01*
X135628285Y-96202534D01*
X135802534Y-96028285D01*
X136007429Y-95891378D01*
X136008342Y-95891000D01*
X136235097Y-95797075D01*
X136476786Y-95749000D01*
X136723214Y-95749000D01*
X136964903Y-95797075D01*
G37*
G36*
X127851564Y-93829389D02*
G01*
X128042833Y-93908615D01*
X128042835Y-93908616D01*
X128068174Y-93925547D01*
X128214973Y-94023635D01*
X128361365Y-94170027D01*
X128476385Y-94342167D01*
X128555611Y-94533436D01*
X128596000Y-94736484D01*
X128596000Y-94943516D01*
X128555611Y-95146564D01*
X128476385Y-95337833D01*
X128476384Y-95337835D01*
X128361365Y-95509973D01*
X128214973Y-95656365D01*
X128042835Y-95771384D01*
X128042834Y-95771385D01*
X128042833Y-95771385D01*
X127851564Y-95850611D01*
X127648516Y-95891000D01*
X127441484Y-95891000D01*
X127238436Y-95850611D01*
X127047167Y-95771385D01*
X127047166Y-95771385D01*
X127047165Y-95771384D01*
X126875027Y-95656365D01*
X126728635Y-95509973D01*
X126613616Y-95337835D01*
X126613615Y-95337833D01*
X126534389Y-95146564D01*
X126494000Y-94943516D01*
X126494000Y-94736484D01*
X126534389Y-94533436D01*
X126613615Y-94342167D01*
X126728635Y-94170027D01*
X126875027Y-94023635D01*
X127021826Y-93925547D01*
X127047165Y-93908616D01*
X127047167Y-93908615D01*
X127238436Y-93829389D01*
X127441484Y-93789000D01*
X127648516Y-93789000D01*
X127851564Y-93829389D01*
G37*
G36*
X168462395Y-93925546D02*
G01*
X168635466Y-93997234D01*
X168635467Y-93997235D01*
X168791227Y-94101310D01*
X168923690Y-94233773D01*
X168923691Y-94233775D01*
X169027766Y-94389534D01*
X169099454Y-94562605D01*
X169136000Y-94746333D01*
X169136000Y-94933667D01*
X169099454Y-95117395D01*
X169027766Y-95290466D01*
X169027765Y-95290467D01*
X168923690Y-95446227D01*
X168791227Y-95578690D01*
X168712818Y-95631081D01*
X168635466Y-95682766D01*
X168462395Y-95754454D01*
X168278667Y-95791000D01*
X168091333Y-95791000D01*
X167907605Y-95754454D01*
X167734534Y-95682766D01*
X167657182Y-95631081D01*
X167578773Y-95578690D01*
X167446310Y-95446227D01*
X167342235Y-95290467D01*
X167342234Y-95290466D01*
X167270546Y-95117395D01*
X167234000Y-94933667D01*
X167234000Y-94746333D01*
X167270546Y-94562605D01*
X167342234Y-94389534D01*
X167446309Y-94233775D01*
X167446310Y-94233773D01*
X167578773Y-94101310D01*
X167734533Y-93997235D01*
X167734534Y-93997234D01*
X167907605Y-93925546D01*
X168091333Y-93889000D01*
X168278667Y-93889000D01*
X168462395Y-93925546D01*
G37*
G36*
X171002395Y-93925546D02*
G01*
X171175466Y-93997234D01*
X171175467Y-93997235D01*
X171331227Y-94101310D01*
X171463690Y-94233773D01*
X171463691Y-94233775D01*
X171567766Y-94389534D01*
X171639454Y-94562605D01*
X171676000Y-94746333D01*
X171676000Y-94933667D01*
X171639454Y-95117395D01*
X171567766Y-95290466D01*
X171567765Y-95290467D01*
X171463690Y-95446227D01*
X171331227Y-95578690D01*
X171252818Y-95631081D01*
X171175466Y-95682766D01*
X171002395Y-95754454D01*
X170818667Y-95791000D01*
X170631333Y-95791000D01*
X170447605Y-95754454D01*
X170274534Y-95682766D01*
X170197182Y-95631081D01*
X170118773Y-95578690D01*
X169986310Y-95446227D01*
X169882235Y-95290467D01*
X169882234Y-95290466D01*
X169810546Y-95117395D01*
X169774000Y-94933667D01*
X169774000Y-94746333D01*
X169810546Y-94562605D01*
X169882234Y-94389534D01*
X169986309Y-94233775D01*
X169986310Y-94233773D01*
X170118773Y-94101310D01*
X170274533Y-93997235D01*
X170274534Y-93997234D01*
X170447605Y-93925546D01*
X170631333Y-93889000D01*
X170818667Y-93889000D01*
X171002395Y-93925546D01*
G37*
G36*
X127851564Y-91289389D02*
G01*
X128042833Y-91368615D01*
X128042835Y-91368616D01*
X128174692Y-91456720D01*
X128214973Y-91483635D01*
X128361365Y-91630027D01*
X128476385Y-91802167D01*
X128555611Y-91993436D01*
X128596000Y-92196484D01*
X128596000Y-92403516D01*
X128555611Y-92606564D01*
X128476385Y-92797833D01*
X128476384Y-92797835D01*
X128361365Y-92969973D01*
X128214973Y-93116365D01*
X128042835Y-93231384D01*
X128042834Y-93231385D01*
X128042833Y-93231385D01*
X127851564Y-93310611D01*
X127648516Y-93351000D01*
X127441484Y-93351000D01*
X127238436Y-93310611D01*
X127047167Y-93231385D01*
X127047166Y-93231385D01*
X127047165Y-93231384D01*
X126875027Y-93116365D01*
X126728635Y-92969973D01*
X126613616Y-92797835D01*
X126613615Y-92797833D01*
X126534389Y-92606564D01*
X126494000Y-92403516D01*
X126494000Y-92196484D01*
X126534389Y-91993436D01*
X126613615Y-91802167D01*
X126728635Y-91630027D01*
X126875027Y-91483635D01*
X126915308Y-91456720D01*
X127047165Y-91368616D01*
X127047167Y-91368615D01*
X127238436Y-91289389D01*
X127441484Y-91249000D01*
X127648516Y-91249000D01*
X127851564Y-91289389D01*
G37*
G36*
X171002395Y-91385546D02*
G01*
X171175466Y-91457234D01*
X171252818Y-91508919D01*
X171331227Y-91561310D01*
X171463690Y-91693773D01*
X171463691Y-91693775D01*
X171567766Y-91849534D01*
X171639454Y-92022605D01*
X171676000Y-92206333D01*
X171676000Y-92393667D01*
X171639454Y-92577395D01*
X171567766Y-92750466D01*
X171567765Y-92750467D01*
X171463690Y-92906227D01*
X171331227Y-93038690D01*
X171283274Y-93070731D01*
X171175466Y-93142766D01*
X171002395Y-93214454D01*
X170818667Y-93251000D01*
X170631333Y-93251000D01*
X170447605Y-93214454D01*
X170274534Y-93142766D01*
X170166726Y-93070731D01*
X170118773Y-93038690D01*
X169986310Y-92906227D01*
X169882235Y-92750467D01*
X169882234Y-92750466D01*
X169810546Y-92577395D01*
X169774000Y-92393667D01*
X169774000Y-92206333D01*
X169810546Y-92022605D01*
X169882234Y-91849534D01*
X169986309Y-91693775D01*
X169986310Y-91693773D01*
X170118773Y-91561310D01*
X170197182Y-91508919D01*
X170274534Y-91457234D01*
X170447605Y-91385546D01*
X170631333Y-91349000D01*
X170818667Y-91349000D01*
X171002395Y-91385546D01*
G37*
G36*
X168995723Y-91352939D02*
G01*
X169028280Y-91362815D01*
X169058276Y-91378848D01*
X169084572Y-91400428D01*
X169106152Y-91426724D01*
X169122185Y-91456720D01*
X169132061Y-91489277D01*
X169136000Y-91529269D01*
X169136000Y-93070731D01*
X169132061Y-93110723D01*
X169122185Y-93143280D01*
X169106152Y-93173276D01*
X169084572Y-93199572D01*
X169058276Y-93221152D01*
X169028280Y-93237185D01*
X168995723Y-93247061D01*
X168955731Y-93251000D01*
X167414269Y-93251000D01*
X167374277Y-93247061D01*
X167341720Y-93237185D01*
X167311724Y-93221152D01*
X167285428Y-93199572D01*
X167263848Y-93173276D01*
X167247815Y-93143280D01*
X167237939Y-93110723D01*
X167234000Y-93070731D01*
X167234000Y-91529269D01*
X167237939Y-91489277D01*
X167247815Y-91456720D01*
X167263848Y-91426724D01*
X167285428Y-91400428D01*
X167311724Y-91378848D01*
X167341720Y-91362815D01*
X167374277Y-91352939D01*
X167414269Y-91349000D01*
X168955731Y-91349000D01*
X168995723Y-91352939D01*
G37*
G36*
X127851564Y-88749389D02*
G01*
X128042833Y-88828615D01*
X128042835Y-88828616D01*
X128214973Y-88943635D01*
X128361365Y-89090027D01*
X128476385Y-89262167D01*
X128555611Y-89453436D01*
X128596000Y-89656484D01*
X128596000Y-89863516D01*
X128555611Y-90066564D01*
X128476385Y-90257833D01*
X128476384Y-90257835D01*
X128361365Y-90429973D01*
X128214973Y-90576365D01*
X128042835Y-90691384D01*
X128042834Y-90691385D01*
X128042833Y-90691385D01*
X127851564Y-90770611D01*
X127648516Y-90811000D01*
X127441484Y-90811000D01*
X127238436Y-90770611D01*
X127047167Y-90691385D01*
X127047166Y-90691385D01*
X127047165Y-90691384D01*
X126875027Y-90576365D01*
X126728635Y-90429973D01*
X126613616Y-90257835D01*
X126613615Y-90257833D01*
X126534389Y-90066564D01*
X126494000Y-89863516D01*
X126494000Y-89656484D01*
X126534389Y-89453436D01*
X126613615Y-89262167D01*
X126728635Y-89090027D01*
X126875027Y-88943635D01*
X127047165Y-88828616D01*
X127047167Y-88828615D01*
X127238436Y-88749389D01*
X127441484Y-88709000D01*
X127648516Y-88709000D01*
X127851564Y-88749389D01*
G37*
G36*
X128462865Y-80825855D02*
G01*
X129063608Y-81074691D01*
X129063610Y-81074692D01*
X129604265Y-81435946D01*
X130064054Y-81895735D01*
X130306257Y-82258218D01*
X130425309Y-82436392D01*
X130674145Y-83037135D01*
X130801000Y-83674879D01*
X130801000Y-84325121D01*
X130674145Y-84962865D01*
X130531284Y-85307761D01*
X130425308Y-85563610D01*
X130064054Y-86104265D01*
X129604265Y-86564054D01*
X129063610Y-86925308D01*
X129063609Y-86925309D01*
X129063608Y-86925309D01*
X128462865Y-87174145D01*
X127825121Y-87301000D01*
X127174879Y-87301000D01*
X126537135Y-87174145D01*
X125936392Y-86925309D01*
X125936391Y-86925309D01*
X125936390Y-86925308D01*
X125395735Y-86564054D01*
X124935946Y-86104265D01*
X124574692Y-85563610D01*
X124468716Y-85307761D01*
X124325855Y-84962865D01*
X124199000Y-84325121D01*
X124199000Y-83674879D01*
X124325855Y-83037135D01*
X124574691Y-82436392D01*
X124693743Y-82258218D01*
X124935946Y-81895735D01*
X125395735Y-81435946D01*
X125936390Y-81074692D01*
X125936392Y-81074691D01*
X126537135Y-80825855D01*
X127174879Y-80699000D01*
X127825121Y-80699000D01*
X128462865Y-80825855D01*
G37*
G36*
X170462865Y-80825855D02*
G01*
X171063608Y-81074691D01*
X171063610Y-81074692D01*
X171604265Y-81435946D01*
X172064054Y-81895735D01*
X172306257Y-82258218D01*
X172425309Y-82436392D01*
X172674145Y-83037135D01*
X172801000Y-83674879D01*
X172801000Y-84325121D01*
X172674145Y-84962865D01*
X172531284Y-85307761D01*
X172425308Y-85563610D01*
X172064054Y-86104265D01*
X171604265Y-86564054D01*
X171063610Y-86925308D01*
X171063609Y-86925309D01*
X171063608Y-86925309D01*
X170462865Y-87174145D01*
X169825121Y-87301000D01*
X169174879Y-87301000D01*
X168537135Y-87174145D01*
X167936392Y-86925309D01*
X167936391Y-86925309D01*
X167936390Y-86925308D01*
X167395735Y-86564054D01*
X166935946Y-86104265D01*
X166574692Y-85563610D01*
X166468716Y-85307761D01*
X166325855Y-84962865D01*
X166199000Y-84325121D01*
X166199000Y-83674879D01*
X166325855Y-83037135D01*
X166574691Y-82436392D01*
X166693743Y-82258218D01*
X166935946Y-81895735D01*
X167395735Y-81435946D01*
X167936390Y-81074692D01*
X167936392Y-81074691D01*
X168537135Y-80825855D01*
X169174879Y-80699000D01*
X169825121Y-80699000D01*
X170462865Y-80825855D01*
G37*
G36*
X157034852Y-82997840D02*
G01*
X157066443Y-83007423D01*
X157095557Y-83022985D01*
X157121074Y-83043926D01*
X157142015Y-83069443D01*
X157157577Y-83098557D01*
X157167160Y-83130148D01*
X157171000Y-83169140D01*
X157171000Y-84920860D01*
X157167160Y-84959852D01*
X157157577Y-84991443D01*
X157142015Y-85020557D01*
X157121074Y-85046074D01*
X157095557Y-85067015D01*
X157066443Y-85082577D01*
X157034852Y-85092160D01*
X156995860Y-85096000D01*
X155244140Y-85096000D01*
X155205148Y-85092160D01*
X155173557Y-85082577D01*
X155144443Y-85067015D01*
X155118926Y-85046074D01*
X155097985Y-85020557D01*
X155082423Y-84991443D01*
X155072840Y-84959852D01*
X155069000Y-84920860D01*
X155069000Y-83169140D01*
X155072840Y-83130148D01*
X155082423Y-83098557D01*
X155097985Y-83069443D01*
X155118926Y-83043926D01*
X155144443Y-83022985D01*
X155173557Y-83007423D01*
X155205148Y-82997840D01*
X155244140Y-82994000D01*
X156995860Y-82994000D01*
X157034852Y-82997840D01*
G37*
G36*
X138646564Y-83034389D02*
G01*
X138830974Y-83110774D01*
X138837835Y-83113616D01*
X139009973Y-83228635D01*
X139156365Y-83375027D01*
X139247694Y-83511710D01*
X139271385Y-83547167D01*
X139350611Y-83738436D01*
X139391000Y-83941484D01*
X139391000Y-84148516D01*
X139350611Y-84351564D01*
X139318954Y-84427990D01*
X139271384Y-84542835D01*
X139156365Y-84714973D01*
X139009973Y-84861365D01*
X138837835Y-84976384D01*
X138837834Y-84976385D01*
X138837833Y-84976385D01*
X138646564Y-85055611D01*
X138443516Y-85096000D01*
X138236484Y-85096000D01*
X138033436Y-85055611D01*
X137842167Y-84976385D01*
X137842166Y-84976385D01*
X137842165Y-84976384D01*
X137670027Y-84861365D01*
X137523635Y-84714973D01*
X137408616Y-84542835D01*
X137361046Y-84427990D01*
X137329389Y-84351564D01*
X137289000Y-84148516D01*
X137289000Y-83941484D01*
X137329389Y-83738436D01*
X137408615Y-83547167D01*
X137432307Y-83511710D01*
X137523635Y-83375027D01*
X137670027Y-83228635D01*
X137842165Y-83113616D01*
X137849026Y-83110774D01*
X138033436Y-83034389D01*
X138236484Y-82994000D01*
X138443516Y-82994000D01*
X138646564Y-83034389D01*
G37*
G36*
X161506564Y-83034389D02*
G01*
X161690974Y-83110774D01*
X161697835Y-83113616D01*
X161869973Y-83228635D01*
X162016365Y-83375027D01*
X162107694Y-83511710D01*
X162131385Y-83547167D01*
X162210611Y-83738436D01*
X162251000Y-83941484D01*
X162251000Y-84148516D01*
X162210611Y-84351564D01*
X162178954Y-84427990D01*
X162131384Y-84542835D01*
X162016365Y-84714973D01*
X161869973Y-84861365D01*
X161697835Y-84976384D01*
X161697834Y-84976385D01*
X161697833Y-84976385D01*
X161506564Y-85055611D01*
X161303516Y-85096000D01*
X161096484Y-85096000D01*
X160893436Y-85055611D01*
X160702167Y-84976385D01*
X160702166Y-84976385D01*
X160702165Y-84976384D01*
X160530027Y-84861365D01*
X160383635Y-84714973D01*
X160268616Y-84542835D01*
X160221046Y-84427990D01*
X160189389Y-84351564D01*
X160149000Y-84148516D01*
X160149000Y-83941484D01*
X160189389Y-83738436D01*
X160268615Y-83547167D01*
X160292307Y-83511710D01*
X160383635Y-83375027D01*
X160530027Y-83228635D01*
X160702165Y-83113616D01*
X160709026Y-83110774D01*
X160893436Y-83034389D01*
X161096484Y-82994000D01*
X161303516Y-82994000D01*
X161506564Y-83034389D01*
G37*
G36*
X158966564Y-83034389D02*
G01*
X159150974Y-83110774D01*
X159157835Y-83113616D01*
X159329973Y-83228635D01*
X159476365Y-83375027D01*
X159567694Y-83511710D01*
X159591385Y-83547167D01*
X159670611Y-83738436D01*
X159711000Y-83941484D01*
X159711000Y-84148516D01*
X159670611Y-84351564D01*
X159638954Y-84427990D01*
X159591384Y-84542835D01*
X159476365Y-84714973D01*
X159329973Y-84861365D01*
X159157835Y-84976384D01*
X159157834Y-84976385D01*
X159157833Y-84976385D01*
X158966564Y-85055611D01*
X158763516Y-85096000D01*
X158556484Y-85096000D01*
X158353436Y-85055611D01*
X158162167Y-84976385D01*
X158162166Y-84976385D01*
X158162165Y-84976384D01*
X157990027Y-84861365D01*
X157843635Y-84714973D01*
X157728616Y-84542835D01*
X157681046Y-84427990D01*
X157649389Y-84351564D01*
X157609000Y-84148516D01*
X157609000Y-83941484D01*
X157649389Y-83738436D01*
X157728615Y-83547167D01*
X157752307Y-83511710D01*
X157843635Y-83375027D01*
X157990027Y-83228635D01*
X158162165Y-83113616D01*
X158169026Y-83110774D01*
X158353436Y-83034389D01*
X158556484Y-82994000D01*
X158763516Y-82994000D01*
X158966564Y-83034389D01*
G37*
G36*
X141186564Y-83034389D02*
G01*
X141370974Y-83110774D01*
X141377835Y-83113616D01*
X141549973Y-83228635D01*
X141696365Y-83375027D01*
X141787694Y-83511710D01*
X141811385Y-83547167D01*
X141890611Y-83738436D01*
X141931000Y-83941484D01*
X141931000Y-84148516D01*
X141890611Y-84351564D01*
X141858954Y-84427990D01*
X141811384Y-84542835D01*
X141696365Y-84714973D01*
X141549973Y-84861365D01*
X141377835Y-84976384D01*
X141377834Y-84976385D01*
X141377833Y-84976385D01*
X141186564Y-85055611D01*
X140983516Y-85096000D01*
X140776484Y-85096000D01*
X140573436Y-85055611D01*
X140382167Y-84976385D01*
X140382166Y-84976385D01*
X140382165Y-84976384D01*
X140210027Y-84861365D01*
X140063635Y-84714973D01*
X139948616Y-84542835D01*
X139901046Y-84427990D01*
X139869389Y-84351564D01*
X139829000Y-84148516D01*
X139829000Y-83941484D01*
X139869389Y-83738436D01*
X139948615Y-83547167D01*
X139972307Y-83511710D01*
X140063635Y-83375027D01*
X140210027Y-83228635D01*
X140382165Y-83113616D01*
X140389026Y-83110774D01*
X140573436Y-83034389D01*
X140776484Y-82994000D01*
X140983516Y-82994000D01*
X141186564Y-83034389D01*
G37*
G36*
X136106564Y-83034389D02*
G01*
X136290974Y-83110774D01*
X136297835Y-83113616D01*
X136469973Y-83228635D01*
X136616365Y-83375027D01*
X136707694Y-83511710D01*
X136731385Y-83547167D01*
X136810611Y-83738436D01*
X136851000Y-83941484D01*
X136851000Y-84148516D01*
X136810611Y-84351564D01*
X136778954Y-84427990D01*
X136731384Y-84542835D01*
X136616365Y-84714973D01*
X136469973Y-84861365D01*
X136297835Y-84976384D01*
X136297834Y-84976385D01*
X136297833Y-84976385D01*
X136106564Y-85055611D01*
X135903516Y-85096000D01*
X135696484Y-85096000D01*
X135493436Y-85055611D01*
X135302167Y-84976385D01*
X135302166Y-84976385D01*
X135302165Y-84976384D01*
X135130027Y-84861365D01*
X134983635Y-84714973D01*
X134868616Y-84542835D01*
X134821046Y-84427990D01*
X134789389Y-84351564D01*
X134749000Y-84148516D01*
X134749000Y-83941484D01*
X134789389Y-83738436D01*
X134868615Y-83547167D01*
X134892307Y-83511710D01*
X134983635Y-83375027D01*
X135130027Y-83228635D01*
X135302165Y-83113616D01*
X135309026Y-83110774D01*
X135493436Y-83034389D01*
X135696484Y-82994000D01*
X135903516Y-82994000D01*
X136106564Y-83034389D01*
G37*
G36*
X134174852Y-82997840D02*
G01*
X134206443Y-83007423D01*
X134235557Y-83022985D01*
X134261074Y-83043926D01*
X134282015Y-83069443D01*
X134297577Y-83098557D01*
X134307160Y-83130148D01*
X134311000Y-83169140D01*
X134311000Y-84920860D01*
X134307160Y-84959852D01*
X134297577Y-84991443D01*
X134282015Y-85020557D01*
X134261074Y-85046074D01*
X134235557Y-85067015D01*
X134206443Y-85082577D01*
X134174852Y-85092160D01*
X134135860Y-85096000D01*
X132384140Y-85096000D01*
X132345148Y-85092160D01*
X132313557Y-85082577D01*
X132284443Y-85067015D01*
X132258926Y-85046074D01*
X132237985Y-85020557D01*
X132222423Y-84991443D01*
X132212840Y-84959852D01*
X132209000Y-84920860D01*
X132209000Y-83169140D01*
X132212840Y-83130148D01*
X132222423Y-83098557D01*
X132237985Y-83069443D01*
X132258926Y-83043926D01*
X132284443Y-83022985D01*
X132313557Y-83007423D01*
X132345148Y-82997840D01*
X132384140Y-82994000D01*
X134135860Y-82994000D01*
X134174852Y-82997840D01*
G37*
G36*
X164046564Y-83034389D02*
G01*
X164230974Y-83110774D01*
X164237835Y-83113616D01*
X164409973Y-83228635D01*
X164556365Y-83375027D01*
X164647694Y-83511710D01*
X164671385Y-83547167D01*
X164750611Y-83738436D01*
X164791000Y-83941484D01*
X164791000Y-84148516D01*
X164750611Y-84351564D01*
X164718954Y-84427990D01*
X164671384Y-84542835D01*
X164556365Y-84714973D01*
X164409973Y-84861365D01*
X164237835Y-84976384D01*
X164237834Y-84976385D01*
X164237833Y-84976385D01*
X164046564Y-85055611D01*
X163843516Y-85096000D01*
X163636484Y-85096000D01*
X163433436Y-85055611D01*
X163242167Y-84976385D01*
X163242166Y-84976385D01*
X163242165Y-84976384D01*
X163070027Y-84861365D01*
X162923635Y-84714973D01*
X162808616Y-84542835D01*
X162761046Y-84427990D01*
X162729389Y-84351564D01*
X162689000Y-84148516D01*
X162689000Y-83941484D01*
X162729389Y-83738436D01*
X162808615Y-83547167D01*
X162832307Y-83511710D01*
X162923635Y-83375027D01*
X163070027Y-83228635D01*
X163242165Y-83113616D01*
X163249026Y-83110774D01*
X163433436Y-83034389D01*
X163636484Y-82994000D01*
X163843516Y-82994000D01*
X164046564Y-83034389D01*
G37*
M02*
