M48
; DRILL file {KiCad 5.1.5+dfsg1-2build2} date Пн 10 мая 2021 22:18:21
; FORMAT={-:-/ absolute / metric / decimal}
; #@! TF.CreationDate,2021-05-10T22:18:21+03:00
; #@! TF.GenerationSoftware,Kicad,Pcbnew,5.1.5+dfsg1-2build2
FMAT,2
METRIC
T1C0.400
T2C0.500
T3C1.000
T4C1.200
T5C1.700
T6C3.400
%
G90
G05
T1
X125.0Y-111.5
X126.0Y-111.5
X130.75Y-100.5
X131.25Y-121.25
X131.25Y-122.25
X131.75Y-105.25
X132.5Y-93.0
X132.625Y-125.955
X132.75Y-105.25
X132.75Y-112.25
X132.75Y-113.25
X132.75Y-119.0
X133.75Y-100.5
X133.75Y-113.25
X133.895Y-125.955
X135.165Y-124.685
X135.165Y-125.955
X136.435Y-123.415
X136.435Y-124.685
X137.705Y-127.86
X137.75Y-100.5
X137.75Y-113.25
X137.75Y-115.75
X137.75Y-116.75
X138.25Y-89.75
X138.25Y-98.25
X140.5Y-100.5
X140.5Y-105.0
X141.5Y-120.25
X142.15Y-117.7
X142.75Y-89.75
X145.75Y-99.5
X146.5Y-97.25
X147.0Y-93.5
X147.0Y-99.5
X147.5Y-97.25
X147.75Y-102.5
X147.75Y-106.75
X148.75Y-102.5
X149.5Y-92.0
X149.75Y-102.5
X151.25Y-102.75
X152.5Y-108.75
X153.5Y-93.25
X154.25Y-96.75
X154.25Y-107.0
X154.5Y-98.0
X154.75Y-93.25
X155.5Y-98.5
X155.5Y-108.0
X156.25Y-105.0
X156.5Y-99.0
X157.5Y-99.5
X157.75Y-93.25
X157.75Y-103.5
X158.5Y-100.0
X158.75Y-86.5
X159.033Y-110.717
X159.25Y-94.25
X159.25Y-105.0
X159.25Y-122.0
X159.5Y-98.5
X159.5Y-100.5
X159.75Y-107.0
X161.0Y-99.75
X161.0Y-101.5
X161.0Y-108.25
X161.5Y-96.5
X161.835Y-120.24
X162.0Y-92.5
X163.0Y-86.0
X163.0Y-88.25
X163.5Y-102.25
X163.5Y-104.0
X163.75Y-89.75
X163.75Y-98.75
X164.25Y-111.75
X164.25Y-113.0
X164.25Y-118.975
X165.5Y-95.25
X165.75Y-115.75
X165.75Y-116.75
X166.0Y-101.5
X166.0Y-104.0
T2
X166.96Y-126.0
X167.704Y-124.204
X167.704Y-127.796
X169.5Y-123.46
X169.5Y-128.54
X171.296Y-124.204
X171.296Y-127.796
X172.04Y-126.0
X124.96Y-126.0
X125.704Y-124.204
X125.704Y-127.796
X127.5Y-123.46
X127.5Y-128.54
X129.296Y-124.204
X129.296Y-127.796
X130.04Y-126.0
X124.96Y-84.0
X125.704Y-82.204
X125.704Y-85.796
X127.5Y-81.46
X127.5Y-86.54
X129.296Y-82.204
X129.296Y-85.796
X130.04Y-84.0
X166.96Y-84.0
X167.704Y-82.204
X167.704Y-85.796
X169.5Y-81.46
X169.5Y-86.54
X171.296Y-82.204
X171.296Y-85.796
X172.04Y-84.0
T3
X169.455Y-117.7
X169.455Y-120.24
X169.455Y-106.27
X169.455Y-108.81
X169.455Y-111.35
X169.455Y-113.89
X168.185Y-92.3
X168.185Y-94.84
X168.185Y-97.38
X168.185Y-99.92
X170.725Y-92.3
X170.725Y-94.84
X170.725Y-97.38
X170.725Y-99.92
X127.545Y-89.76
X127.545Y-92.3
X127.545Y-94.84
X127.545Y-97.38
X127.545Y-99.92
X133.26Y-84.045
X135.8Y-84.045
X138.34Y-84.045
X140.88Y-84.045
X139.61Y-123.415
X139.61Y-125.955
X142.15Y-123.415
X142.15Y-125.955
X144.69Y-123.415
X144.69Y-125.955
X147.23Y-123.415
X147.23Y-125.955
X149.77Y-123.415
X149.77Y-125.955
X152.31Y-123.415
X152.31Y-125.955
X154.85Y-123.415
X154.85Y-125.955
X157.39Y-123.415
X157.39Y-125.955
X139.61Y-111.985
X139.61Y-114.525
X142.15Y-111.985
X142.15Y-114.525
X144.69Y-111.985
X144.69Y-114.525
X147.23Y-111.985
X147.23Y-114.525
X149.77Y-111.985
X149.77Y-114.525
X152.31Y-111.985
X152.31Y-114.525
X154.85Y-111.985
X154.85Y-114.525
X157.39Y-111.985
X157.39Y-114.525
X156.12Y-84.045
X158.66Y-84.045
X161.2Y-84.045
X163.74Y-84.045
T4
X136.6Y-97.0
X157.1Y-97.0
T5
X128.815Y-105.41
X128.815Y-109.37
X128.815Y-113.33
X128.815Y-117.29
T6
X169.5Y-126.0
X127.5Y-126.0
X127.5Y-84.0
X169.5Y-84.0
T0
M30
